<?xml version="1.0" standalone="no"?>
<!DOCTYPE svg PUBLIC "-//W3C//DTD SVG 20010904//EN"
 "http://www.w3.org/TR/2001/REC-SVG-20010904/DTD/svg10.dtd">
<svg version="1.0" xmlns="http://www.w3.org/2000/svg"
 width="600.000000pt" height="695.000000pt" viewBox="0 0 600.000000 695.000000"
 preserveAspectRatio="xMidYMid meet">

<g transform="translate(0.000000,695.000000) scale(0.100000,-0.100000)"
fill="#000000" stroke="none">
<path d="M0 3475 l0 -3475 3000 0 3000 0 0 3475 0 3475 -3000 0 -3000 0 0
-3475z m4419 3344 c214 -112 302 -159 331 -179 29 -20 192 -106 425 -224 238
-121 407 -197 630 -282 l140 -53 3 -2147 c2 -1845 0 -2145 -12 -2129 -9 12
-12 32 -9 52 3 18 1 38 -4 45 -6 7 -11 38 -12 68 -1 30 -6 59 -11 64 -5 5 -6
15 -3 22 3 8 0 20 -6 28 -6 7 -9 21 -5 30 3 9 3 24 -2 33 -4 10 -8 60 -9 111
0 70 -4 95 -15 102 -12 8 -12 10 2 15 16 6 14 45 -3 45 -5 0 -9 5 -9 10 0 6 7
10 15 10 17 0 20 22 6 48 -6 9 -12 29 -16 44 -3 18 -12 28 -23 28 -9 0 -13 3
-7 8 15 11 17 37 3 68 -6 16 -12 34 -13 39 -1 6 -5 20 -9 33 -8 24 -14 64 -15
100 -1 13 -14 35 -30 50 -27 23 -28 27 -14 38 16 11 16 14 -1 39 -10 15 -19
40 -22 57 -2 17 -12 49 -24 72 -11 23 -20 53 -20 65 0 13 -9 35 -20 51 -11 15
-17 30 -13 33 3 4 0 14 -8 23 -7 9 -14 24 -16 35 -2 10 -14 42 -28 71 -14 28
-25 57 -25 64 0 6 -8 29 -17 50 -9 22 -17 44 -18 49 -2 16 -28 65 -34 65 -4 0
-7 9 -8 20 -1 11 -11 39 -22 63 -32 70 -79 180 -92 220 -7 20 -15 37 -19 37
-3 0 -5 29 -5 64 0 57 -3 68 -32 104 -21 26 -28 43 -22 49 7 7 2 16 -15 26
-29 19 -38 7 -25 -33 5 -14 13 -54 18 -90 15 -99 21 -122 40 -165 10 -22 28
-69 40 -105 12 -36 26 -67 32 -68 5 -2 7 -7 4 -12 -7 -11 56 -164 72 -173 7
-4 13 -19 13 -33 0 -14 7 -32 16 -41 8 -9 13 -21 10 -29 -5 -14 30 -123 45
-138 5 -6 9 -18 9 -29 0 -10 5 -28 12 -40 7 -12 13 -31 15 -41 2 -11 10 -33
18 -49 8 -17 15 -36 15 -44 0 -21 24 -93 31 -93 4 0 10 -20 13 -44 6 -35 10
-44 23 -39 12 5 14 1 9 -23 -4 -19 1 -51 14 -88 11 -33 20 -74 20 -93 0 -18 3
-33 8 -33 4 0 8 -10 8 -22 2 -49 14 -98 28 -127 11 -21 13 -32 5 -37 -11 -6
-7 -203 5 -223 3 -5 8 -51 11 -103 4 -79 10 -131 28 -265 2 -12 9 -29 16 -37
10 -12 10 -16 2 -16 -7 0 -10 -8 -7 -17 3 -10 8 -70 11 -134 3 -64 8 -127 11
-140 3 -13 7 -49 9 -79 8 -120 15 -174 25 -184 13 -13 13 -29 0 -21 -12 7 -12
-10 -11 -190 1 -71 -3 -156 -7 -187 -5 -31 -5 -55 0 -52 4 3 8 1 8 -5 0 -5 -5
-11 -11 -13 -7 -2 -13 -17 -15 -33 -12 -108 -17 -130 -25 -133 -5 -2 -12 -21
-15 -43 -4 -21 -10 -39 -15 -39 -5 0 -8 -5 -7 -11 2 -7 -19 -20 -46 -29 -55
-20 -108 -12 -136 20 -10 12 -30 18 -60 18 -53 0 -78 4 -105 19 -11 6 -36 14
-55 18 -19 4 -39 10 -45 14 -5 4 -23 8 -40 9 -16 1 -31 7 -33 12 -2 6 -10 10
-17 10 -26 0 -239 85 -222 88 20 4 23 18 5 25 -10 3 -10 7 -1 18 10 12 9 21
-3 44 -14 26 -14 31 0 41 26 19 18 24 -36 24 -69 0 -131 -39 -122 -77 l6 -24
-53 22 c-30 11 -88 33 -129 49 -41 15 -98 37 -126 48 -29 12 -54 18 -58 15 -3
-3 -12 -1 -20 6 -8 6 -18 11 -22 9 -5 -1 -18 2 -29 8 -31 16 -127 36 -155 33
-17 -3 -24 -9 -22 -21 4 -25 -5 -22 -31 8 -23 26 -57 25 -57 -2 0 -20 -17 -17
-29 3 -14 26 -88 26 -95 0 -7 -28 -40 -18 -44 15 -5 40 -26 52 -91 49 -19 -1
-22 -5 -18 -23 3 -13 9 -48 12 -79 6 -46 4 -56 -8 -56 -9 0 -13 6 -10 14 4 9
0 11 -11 7 -9 -3 -16 -10 -16 -15 0 -4 -6 -6 -14 -3 -8 3 -27 -8 -44 -25 -16
-17 -33 -27 -37 -23 -5 4 -5 -1 -2 -11 6 -16 3 -18 -23 -12 -25 5 -29 4 -24
-9 3 -9 1 -16 -5 -16 -6 0 -11 6 -11 14 0 11 -9 10 -42 -7 -24 -12 -46 -20
-50 -19 -5 1 -8 -3 -8 -8 0 -6 -12 -9 -27 -7 -16 2 -38 -1 -50 -6 l-23 -10 27
-14 c20 -10 28 -11 34 -2 4 6 20 11 35 11 16 0 32 5 36 12 5 7 8 4 8 -7 0 -10
-7 -20 -15 -23 -8 -4 -15 -10 -15 -16 0 -5 4 -7 9 -3 5 3 12 1 15 -3 3 -5 29
-7 57 -4 50 5 51 4 40 -17 -7 -12 -9 -26 -6 -31 3 -6 1 -10 -4 -10 -6 0 -11 6
-11 13 0 7 -5 5 -10 -5 -12 -19 -48 -13 -67 11 -11 14 -12 14 -13 -1 0 -10 -4
-18 -10 -18 -5 0 -10 -11 -10 -25 0 -18 -5 -25 -20 -25 -13 0 -20 -7 -20 -20
0 -11 5 -20 10 -20 6 0 10 -4 10 -10 0 -15 -30 -12 -31 3 0 9 -2 9 -6 0 -9
-24 -22 -13 -17 15 3 23 3 24 -7 9 -6 -10 -8 -29 -5 -41 5 -20 3 -23 -19 -18
-14 2 -33 1 -42 -3 -46 -20 -85 10 -76 58 4 18 1 27 -7 27 -8 0 -10 8 -6 25 5
21 3 25 -18 25 -13 0 -29 7 -36 15 -11 13 -8 15 16 15 l27 0 -22 24 c-21 22
-71 41 -71 27 0 -3 7 -15 15 -25 8 -11 15 -27 15 -37 0 -9 7 -20 16 -23 9 -4
14 -9 11 -13 -4 -3 1 -12 10 -18 14 -11 15 -15 4 -28 -7 -9 -9 -22 -5 -29 5
-7 9 -31 10 -53 1 -22 -1 -34 -3 -27 -10 26 -31 10 -37 -28 -7 -44 -24 -56
-85 -59 -8 -1 -11 -8 -8 -20 3 -14 -2 -18 -24 -19 -16 0 -36 -8 -45 -16 -8 -9
-20 -16 -25 -16 -6 0 -15 -13 -20 -30 -6 -16 -15 -27 -20 -24 -5 3 -9 -1 -9
-9 0 -9 -9 -12 -28 -9 -18 2 -35 -2 -45 -12 -8 -9 -23 -16 -32 -16 -11 0 -15
-5 -12 -14 5 -12 -1 -13 -29 -9 -21 4 -40 1 -51 -8 -11 -9 -14 -10 -9 -1 4 6
2 12 -3 12 -6 0 -11 -3 -11 -7 0 -11 -50 -33 -72 -33 -11 0 -32 -7 -47 -14
-15 -8 -38 -12 -50 -9 -13 3 -29 -1 -41 -12 -11 -10 -20 -14 -20 -9 0 5 -6 2
-13 -6 -18 -23 -204 -27 -245 -6 -39 20 -72 21 -72 1 0 -13 -65 -15 -525 -15
-520 0 -525 0 -525 20 0 11 -6 38 -12 60 -11 33 -16 39 -33 34 -18 -4 -18 -4
-4 8 29 24 30 53 4 134 -30 94 -32 132 -7 140 9 3 26 10 37 14 11 5 38 11 60
14 22 3 76 12 120 20 44 8 120 16 168 17 78 2 126 7 177 20 8 2 18 11 22 19 5
12 7 11 7 -3 1 -10 6 -15 11 -12 6 4 17 2 24 -4 6 -6 65 -12 129 -15 64 -3
120 -7 124 -9 5 -3 37 -6 73 -8 36 -2 72 -9 82 -17 9 -7 25 -12 35 -11 10 2
29 -3 43 -11 14 -7 27 -12 30 -10 3 2 14 -11 25 -28 37 -58 74 -30 60 46 -10
51 -23 72 -45 72 -11 0 -20 4 -20 8 0 9 -91 42 -113 42 -5 0 -15 7 -22 16 -8
12 -29 17 -69 19 -35 1 -61 7 -66 15 -4 7 -12 10 -18 6 -6 -3 -12 -1 -14 4 -5
16 -58 22 -74 9 -9 -8 -14 -8 -14 -1 0 6 -9 9 -20 7 -11 -2 -20 0 -20 5 0 8
-74 27 -90 23 -3 -1 -18 -5 -34 -9 -19 -4 -27 -3 -23 4 5 6 -11 11 -41 14 -26
2 -49 0 -51 -5 -2 -5 -6 -4 -10 2 -5 7 -15 6 -35 -4 -33 -17 -71 -21 -46 -5
13 8 12 10 -2 10 -11 0 -18 -8 -18 -20 0 -11 -5 -20 -11 -20 -6 0 -8 9 -4 20
8 25 -11 26 -26 1 -11 -16 -16 -17 -55 -5 -23 7 -45 10 -48 7 -3 -4 -6 -2 -6
4 0 15 -82 5 -95 -12 -5 -6 -16 -10 -22 -8 -7 3 -13 -1 -13 -7 0 -7 -8 -10
-20 -7 -13 3 -25 -2 -35 -16 -15 -21 -15 -21 -16 8 0 17 -3 24 -6 18 -3 -8
-14 -11 -29 -7 -16 4 -24 2 -24 -6 0 -10 -3 -10 -15 0 -11 9 -22 9 -45 1 -17
-5 -37 -8 -45 -5 -11 5 -15 -1 -15 -20 0 -14 4 -26 9 -26 5 0 11 -14 13 -30 3
-17 1 -30 -4 -30 -5 0 -7 -4 -4 -8 3 -5 1 -24 -3 -43 -18 -70 -20 -119 -4
-134 8 -8 10 -15 4 -15 -18 0 -12 -16 15 -44 21 -20 24 -29 15 -39 -6 -8 -9
-16 -7 -18 2 -2 6 -41 9 -86 3 -45 8 -87 12 -92 4 -8 -55 -11 -190 -11 l-196
0 3 123 c2 67 7 125 12 129 6 4 2 46 -9 105 -13 72 -18 142 -17 266 1 166 5
193 22 182 13 -8 90 16 90 28 0 6 3 8 6 4 6 -6 72 38 85 57 4 4 9 4 13 -2 3
-6 20 -8 36 -6 17 3 30 1 30 -5 0 -5 8 -8 18 -6 9 1 16 8 15 14 -2 6 11 10 30
9 18 -1 42 4 53 10 12 6 25 8 29 4 11 -11 175 -8 175 3 0 7 3 7 8 0 13 -18 54
-37 61 -28 3 4 16 14 29 21 19 10 25 10 37 -1 8 -8 11 -18 7 -22 -4 -4 3 -3
15 4 13 6 24 7 27 2 4 -5 14 -8 24 -6 9 1 22 -1 27 -5 15 -12 58 -16 72 -7 16
10 63 -2 63 -16 0 -6 3 -7 7 -4 3 4 12 2 18 -3 14 -11 45 -3 45 11 0 5 5 9 10
9 6 0 10 -7 10 -16 0 -8 5 -12 10 -9 6 3 13 -1 16 -10 4 -10 13 -13 25 -10 11
4 19 2 19 -4 0 -6 10 -10 23 -10 43 2 109 -10 123 -22 7 -6 20 -9 27 -6 18 7
107 -12 107 -23 0 -13 53 -29 92 -26 21 1 38 -3 39 -9 1 -5 2 -21 2 -35 1 -14
7 -24 15 -23 6 2 12 -3 12 -11 0 -8 7 -17 16 -20 8 -3 13 -10 10 -14 -3 -5 1
-17 8 -27 9 -13 27 -18 63 -19 45 -1 50 -3 42 -18 -7 -13 -6 -18 3 -18 7 0 18
-10 23 -22 13 -31 50 -35 65 -9 6 12 19 21 30 21 10 0 22 5 25 10 9 15 47 1
63 -22 9 -13 20 -17 34 -12 12 3 24 1 28 -6 11 -17 149 -20 143 -2 -7 16 29
16 45 0 10 -10 15 -10 21 1 6 9 10 10 16 2 4 -8 23 -10 52 -7 51 6 63 12 63
29 0 7 -4 6 -10 -3 -8 -13 -10 -13 -10 2 0 20 22 36 28 20 4 -13 44 -16 55 -5
4 3 2 12 -4 20 -9 10 -8 13 5 13 9 0 16 7 16 16 0 8 5 12 10 9 6 -3 14 4 19
17 6 13 10 17 10 11 1 -18 21 -16 21 2 0 9 9 15 21 15 15 0 19 4 15 16 -4 12
-2 15 9 10 9 -3 15 0 15 9 0 8 13 21 30 30 16 9 30 22 30 30 0 7 8 16 18 20 9
3 32 19 50 35 25 23 31 36 26 54 -4 19 0 25 27 36 17 8 44 25 59 39 27 26 80
115 94 162 5 13 9 29 11 34 2 6 5 19 7 30 2 11 7 26 12 33 4 7 5 16 2 19 -3 3
1 11 10 17 14 11 22 32 23 68 1 9 7 23 15 30 7 8 14 35 15 61 3 80 6 97 13 97
4 0 5 7 2 15 -4 8 -2 21 4 28 5 6 13 27 17 45 6 31 5 32 -24 32 -16 0 -33 5
-36 10 -4 6 5 10 19 10 14 0 26 5 26 10 0 6 6 10 13 10 9 0 12 21 12 75 0 41
4 76 9 78 8 3 10 28 7 82 -2 47 7 204 13 213 3 6 2 21 -2 34 -5 12 -7 38 -5
57 2 20 -2 38 -9 43 -10 6 -10 12 -2 25 10 15 26 18 108 17 88 -1 96 0 96 18
0 16 3 17 20 8 11 -6 25 -8 30 -5 5 3 11 1 15 -5 8 -13 62 -13 70 0 3 5 29 9
58 8 29 -1 71 4 95 11 23 6 46 10 51 7 4 -3 23 -1 42 5 19 5 59 12 89 15 30 4
63 10 72 15 9 5 28 9 42 9 14 0 27 4 31 10 3 5 12 7 20 3 14 -5 34 1 110 32
17 7 91 33 165 58 143 47 245 86 270 102 8 5 17 10 20 11 3 0 17 6 32 12 28
11 48 34 27 30 -7 -2 -14 3 -15 10 -1 6 -3 15 -4 20 -4 12 -7 26 -8 40 -1 7
-7 10 -14 6 -6 -4 -8 -3 -5 3 6 9 -10 30 -47 61 -17 14 -36 16 -36 4 0 -5 -29
-15 -65 -22 -36 -7 -65 -17 -65 -22 0 -4 -6 -8 -14 -8 -8 0 -18 -5 -21 -11 -5
-7 7 -9 34 -6 22 2 43 2 46 -1 10 -10 -18 -32 -41 -32 -15 0 -24 -6 -24 -15 0
-8 -9 -15 -20 -15 -22 0 -27 15 -7 23 6 3 -7 6 -30 6 -25 1 -45 -4 -50 -12 -4
-7 -23 -19 -41 -26 -18 -8 -32 -19 -31 -25 3 -26 -2 -46 -12 -46 -5 0 -7 5 -4
10 3 6 -1 10 -9 10 -9 0 -16 -5 -16 -10 0 -6 -12 -9 -27 -8 -18 2 -27 -1 -26
-9 4 -18 -12 -16 -31 2 -19 19 -26 19 -26 -1 0 -14 -2 -14 -15 0 -16 16 -39
12 -65 -9 -20 -17 -43 -23 -114 -30 -33 -3 -67 -10 -77 -15 -10 -6 -27 -10
-38 -10 -12 0 -21 -5 -21 -11 0 -5 -4 -7 -10 -4 -5 3 -10 2 -10 -3 0 -5 -12
-9 -28 -9 -35 -1 -112 -10 -148 -19 -16 -3 -46 -9 -66 -11 -21 -3 -38 -9 -38
-14 0 -4 -24 -8 -54 -8 -29 1 -78 -5 -108 -11 -52 -12 -57 -11 -78 10 -14 14
-19 25 -11 29 5 4 11 21 13 39 2 23 7 32 20 32 10 0 18 5 18 10 0 6 -11 10
-25 10 -14 0 -25 5 -25 11 0 7 12 10 30 7 29 -4 51 16 27 26 -7 2 -5 5 4 5 13
1 16 10 13 46 -2 40 0 45 19 46 22 2 22 2 -1 6 -12 2 -20 9 -16 14 3 5 10 7
15 4 5 -4 9 1 9 10 0 9 -4 13 -10 10 -5 -3 -10 -2 -10 4 0 6 12 14 27 17 25 7
25 8 8 20 -11 8 -13 14 -7 14 7 0 12 5 12 10 0 6 -7 10 -16 10 -9 0 -14 8 -13
18 3 32 -1 41 -15 36 -8 -3 -17 -1 -21 5 -3 6 1 11 9 11 9 0 16 3 16 8 -1 13
-29 45 -51 56 -33 17 -47 44 -29 56 10 6 11 10 3 10 -7 0 -13 8 -13 18 0 25
-7 31 -31 25 -14 -4 -19 -12 -16 -24 3 -11 2 -21 -3 -24 -4 -2 -10 9 -14 25
-3 17 -9 30 -13 29 -32 -5 -53 3 -53 21 0 11 -5 20 -11 20 -5 0 -7 4 -4 10 3
5 1 18 -4 28 -13 24 -2 37 58 77 24 16 48 40 54 52 6 13 18 23 27 23 20 0 43
24 33 33 -3 4 -1 7 6 7 6 0 17 5 24 10 41 35 67 60 67 65 0 11 48 54 54 48 3
-4 6 1 6 10 0 9 3 17 8 16 15 -2 52 14 52 23 0 5 4 7 9 4 5 -3 23 8 41 25 17
17 37 32 43 33 7 1 17 4 22 7 6 4 20 -4 33 -17 16 -18 19 -24 8 -24 -8 0 -18
-5 -22 -11 -5 -9 2 -10 22 -6 29 6 29 6 4 -6 -14 -6 -30 -17 -37 -23 -14 -13
-14 -56 0 -65 14 -10 -1 -29 -23 -29 -10 0 -22 -5 -25 -10 -4 -6 -29 -9 -56
-8 -27 2 -49 0 -49 -4 -1 -35 2 -38 35 -38 28 0 33 3 29 18 -5 13 -4 14 4 3 6
-8 8 -20 5 -28 -3 -7 0 -13 7 -13 6 0 10 -6 7 -12 -2 -7 0 -21 5 -32 8 -14 7
-17 -3 -11 -9 6 -10 3 -6 -9 5 -13 3 -17 -7 -13 -8 3 -17 -1 -20 -8 -12 -32
34 -27 67 7 16 16 15 22 -5 19 -5 0 -8 3 -8 8 0 5 -3 16 -6 24 -4 10 4 21 23
32 23 14 24 15 6 12 -37 -8 -26 7 15 20 20 6 38 8 40 3 2 -4 12 -6 22 -3 12 3
22 -1 26 -10 3 -9 12 -13 21 -10 12 5 14 3 8 -7 -6 -10 -4 -12 8 -7 9 3 16 3
16 -1 -3 -20 2 -31 14 -27 6 3 25 -6 41 -20 27 -23 40 -29 59 -26 4 0 7 -4 7
-9 0 -6 -6 -10 -12 -10 -9 0 -8 -4 2 -10 22 -14 40 -12 40 5 0 8 4 15 8 15 5
0 19 10 32 22 14 13 26 22 27 21 10 -9 23 0 22 15 0 10 -3 12 -6 5 -2 -7 -11
-13 -19 -13 -8 0 -14 6 -14 13 0 9 -2 9 -9 -1 -6 -10 -10 -10 -21 2 -8 11 -21
14 -38 9 -21 -5 -24 -3 -19 11 4 9 2 16 -2 16 -5 0 -11 -7 -15 -15 -3 -8 -13
-15 -23 -15 -13 0 -14 3 -5 12 22 22 14 48 -14 48 -25 0 -76 41 -85 69 -4 12
-11 12 -39 3 -36 -13 -55 -6 -27 9 9 6 17 16 17 23 0 7 9 22 20 34 12 12 16
22 10 22 -5 0 -10 7 -10 16 0 10 6 14 15 10 8 -3 15 -1 15 5 0 5 -11 14 -25
19 -36 14 -31 24 10 17 19 -3 35 -2 35 4 0 13 -64 11 -78 -3 -9 -9 -12 -7 -12
10 0 12 5 22 10 22 6 0 10 7 10 15 0 8 6 15 14 15 8 0 17 9 21 20 3 11 17 28
30 38 13 11 21 22 18 26 -4 4 2 9 14 12 21 6 57 79 47 95 -3 5 4 21 15 34 18
24 41 19 26 -5 -4 -6 5 -10 19 -10 14 0 26 4 26 9 0 5 9 7 19 4 17 -4 20 0 19
26 -1 25 -5 30 -19 26 -9 -3 -29 -3 -44 1 -22 5 -25 11 -21 35 3 19 -2 35 -12
46 -16 16 -16 16 0 10 14 -5 19 1 24 29 5 29 -1 130 -11 186 -5 22 26 40 73
42 20 0 37 7 40 15 4 11 -3 12 -31 7 -20 -4 -38 -2 -42 3 -3 6 -12 8 -20 4
-23 -8 -65 6 -65 22 0 9 6 12 15 9 9 -4 15 0 15 9 0 8 8 18 18 22 15 6 15 8
-4 15 -12 5 -28 23 -35 40 -8 17 -24 33 -37 37 -21 5 -21 6 -6 18 11 7 13 14
6 18 -5 4 -8 16 -5 26 8 31 -30 62 -64 52 -30 -8 -53 -5 -53 9 0 4 14 7 30 6
23 -2 30 2 30 15 0 10 -6 20 -12 23 -7 3 -3 3 10 0 12 -3 22 -1 22 5 0 18 -37
31 -72 26 -32 -5 -32 -5 -5 4 16 5 35 15 43 22 13 10 13 15 0 34 -18 27 -17
65 2 65 12 0 61 95 67 130 3 22 54 32 79 15 11 -8 31 -15 44 -15 17 0 22 -4
18 -15 -4 -12 -2 -13 14 -2 24 14 21 29 -8 42 -25 11 -30 56 -9 72 45 36 151
-4 171 -65 6 -18 16 -36 22 -40 16 -11 25 -41 31 -102 3 -30 12 -67 20 -82 12
-25 12 -28 -2 -28 -12 0 -15 -15 -15 -79 0 -63 -4 -83 -20 -104 -11 -14 -20
-32 -20 -41 0 -20 -42 -44 -48 -27 -5 14 -32 15 -32 1 0 -5 3 -10 8 -10 4 0 8
-14 9 -30 1 -17 -1 -29 -5 -26 -4 2 -20 -7 -37 -20 -29 -23 -29 -24 -10 -38
11 -8 23 -12 27 -10 7 5 12 -10 9 -28 -2 -12 17 -10 24 2 3 6 -1 17 -9 26 -22
21 -20 34 4 34 11 0 20 4 20 9 0 9 42 24 70 26 54 3 74 37 28 48 -11 3 -17 10
-13 16 3 6 11 9 16 5 5 -3 15 8 22 24 11 26 14 28 26 15 11 -12 15 -13 22 -1
6 8 3 14 -6 16 -16 4 -21 22 -6 22 5 0 4 16 -2 36 -9 29 -8 37 4 45 11 8 11
12 2 16 -18 7 -16 23 2 23 8 0 15 6 15 14 0 8 6 16 12 18 9 3 8 9 -4 21 -13
13 -15 24 -7 49 6 23 5 36 -5 47 -7 9 -12 21 -10 26 3 6 -5 21 -16 33 -12 12
-16 22 -10 22 18 0 11 17 -19 49 -16 17 -37 54 -46 81 -18 53 -23 58 -44 38
-10 -11 -11 -10 -6 4 8 20 -8 26 -100 34 -133 11 -165 9 -165 -11 0 -22 -36
-18 -53 5 -8 11 -16 17 -19 15 -3 -3 -8 1 -12 10 -3 9 -2 13 4 10 6 -4 9 4 7
17 -1 17 4 24 22 26 21 3 23 7 17 45 -10 63 -37 141 -54 153 -11 8 -12 13 -3
18 23 15 -21 156 -49 156 -4 0 -10 12 -13 28 -7 30 -86 122 -105 122 -7 0 -13
8 -12 18 3 31 -12 61 -34 68 -67 19 -96 38 -96 63 0 13 -3 21 -7 18 -3 -4 -12
2 -20 13 -8 11 -19 20 -24 20 -6 0 -17 7 -25 15 -9 8 -26 15 -40 15 -13 0 -33
9 -44 20 -11 11 -33 20 -50 20 -16 0 -30 4 -30 9 0 5 -26 12 -57 16 -32 4 -62
10 -68 15 -35 26 -115 16 -115 -16 0 -14 -10 -15 -77 -10 -180 13 -278 20
-285 18 -5 -1 -8 2 -8 7 0 9 23 22 49 27 18 4 30 24 24 41 -3 8 2 13 15 13 24
0 42 22 23 28 -8 3 -2 12 16 23 15 10 25 19 20 19 -4 0 2 17 13 38 l20 37 -26
3 c-16 2 -24 8 -20 17 7 19 -4 26 -24 15 -14 -8 -28 -2 -60 25 -23 19 -49 35
-57 35 -10 0 -12 6 -8 21 6 19 3 20 -30 18 -20 -2 -39 1 -43 7 -4 6 -17 14
-29 18 -25 8 -29 26 -13 56 10 18 7 20 -60 18 -38 0 -70 -4 -70 -9 0 -4 -13
-12 -29 -17 -16 -6 -38 -18 -49 -28 -12 -10 -34 -20 -48 -22 -42 -5 -64 -21
-64 -45 0 -17 -8 -25 -32 -32 -43 -13 -85 -87 -69 -122 6 -14 7 -24 1 -28 -22
-13 -9 -54 25 -84 20 -17 39 -31 44 -31 5 0 14 14 21 30 14 33 25 38 34 15 3
-9 19 -15 41 -15 28 0 38 -5 45 -22 5 -13 9 -17 9 -9 1 8 3 12 6 9 11 -10 -7
-37 -21 -31 -9 3 -14 -1 -14 -12 0 -12 -6 -16 -20 -12 -11 3 -22 2 -25 -3 -5
-8 -103 -5 -112 3 -8 9 -287 -4 -297 -13 -5 -5 -16 -5 -25 -1 -30 16 -86 21
-118 12 -20 -6 -35 -6 -38 0 -4 5 -16 7 -28 4 -12 -3 -42 -7 -66 -10 -54 -5
-151 -35 -151 -45 0 -7 -57 -19 -107 -23 -12 -1 -28 -8 -35 -14 -6 -7 -18 -13
-25 -13 -7 0 -13 -4 -13 -8 0 -4 -12 -9 -27 -10 -15 -1 -30 -7 -33 -13 -4 -5
-16 -11 -28 -12 -11 0 -18 -5 -15 -10 3 -4 -4 -11 -16 -14 -12 -3 -24 -16 -27
-29 -3 -13 -10 -24 -15 -24 -16 0 -48 -42 -42 -56 3 -8 -2 -17 -11 -20 -9 -3
-16 -11 -16 -18 0 -6 -9 -17 -20 -24 -12 -7 -18 -17 -15 -22 3 -6 -1 -10 -10
-10 -12 0 -15 -6 -10 -20 4 -11 2 -20 -4 -20 -6 0 -11 -7 -11 -15 0 -8 6 -15
14 -15 8 0 18 -5 22 -11 4 -8 -1 -9 -16 -4 -18 6 -21 4 -18 -12 2 -10 11 -17
20 -17 14 1 14 -3 5 -30 -5 -17 -18 -42 -28 -55 -14 -18 -16 -28 -8 -43 6 -12
17 -17 26 -14 12 5 13 0 8 -24 -4 -19 -3 -30 4 -30 6 0 11 -20 11 -48 0 -42 4
-51 31 -71 25 -19 33 -21 40 -10 6 10 9 8 9 -9 0 -22 25 -38 69 -45 9 -1 21
-6 27 -9 22 -14 68 -17 76 -5 5 8 8 4 8 -10 0 -14 6 -22 18 -22 41 -1 122 -22
122 -32 0 -4 16 -7 35 -5 20 1 39 -2 44 -8 12 -16 21 -57 10 -50 -5 3 -9 -6
-9 -20 0 -14 -4 -26 -9 -26 -10 0 -32 -56 -24 -63 2 -3 -3 -17 -12 -31 -16
-23 -16 -27 1 -49 12 -15 29 -24 47 -25 16 0 27 2 24 5 -9 8 17 31 30 26 13
-5 6 34 -8 43 -5 3 -9 10 -9 17 0 8 3 8 12 -1 18 -18 38 5 38 43 0 19 -6 36
-12 38 -8 4 -7 6 3 6 18 1 29 21 29 51 0 10 9 21 19 25 11 3 21 18 23 35 6 37
-1 45 -17 23 -11 -15 -13 -15 -25 6 -15 30 1 42 43 34 34 -7 49 10 40 46 -5
21 -3 23 15 19 14 -4 22 0 25 13 3 11 1 19 -4 19 -5 0 -9 7 -9 16 0 10 6 14
15 10 8 -3 15 -1 15 3 0 5 -6 12 -12 14 -7 3 -1 6 14 6 20 1 26 5 22 16 -4 10
0 15 15 15 12 0 21 5 21 11 0 7 -11 9 -26 6 -23 -4 -25 -2 -21 19 3 18 0 24
-14 24 -11 0 -19 -5 -19 -11 0 -5 -4 -8 -9 -5 -11 7 -75 -79 -86 -114 -4 -14
-16 -35 -27 -47 -12 -12 -17 -27 -13 -34 5 -7 4 -10 -2 -6 -6 4 -15 -5 -21
-19 -10 -20 -17 -24 -44 -20 -43 5 -197 53 -212 65 -6 6 -26 9 -43 9 -17 -1
-51 9 -75 22 -23 12 -53 27 -65 34 -24 12 -43 46 -43 76 0 11 -4 20 -9 20 -6
0 -5 13 1 33 11 36 12 57 3 105 -5 25 -3 32 6 26 8 -4 10 -3 5 4 -4 7 -4 18 1
25 4 6 8 14 9 17 7 31 29 70 39 70 7 0 16 8 19 18 13 36 38 72 61 90 14 11 25
29 25 39 0 15 17 26 68 45 37 14 85 29 107 33 41 7 147 40 175 55 21 11 152
25 235 24 39 0 210 -4 380 -9 396 -11 491 -9 519 14 17 14 36 7 36 -12 0 -7 8
-13 18 -13 9 0 30 -3 45 -7 21 -6 27 -5 21 4 -5 9 -2 10 9 6 10 -4 17 -1 17 6
0 7 7 4 15 -7 9 -11 20 -16 31 -12 9 3 23 1 31 -6 11 -9 16 -9 24 3 7 11 9 10
9 -5 0 -17 3 -16 23 8 16 18 26 23 33 16 6 -6 25 -12 42 -13 21 -1 33 -8 37
-22 6 -19 6 -19 15 3 11 26 32 30 24 5 -5 -16 -4 -16 10 1 12 15 23 17 60 12
25 -4 48 -11 51 -16 3 -4 13 -6 23 -4 9 3 30 -7 46 -21 16 -14 35 -25 43 -25
19 0 48 -19 96 -62 23 -21 48 -38 55 -38 7 0 10 -4 7 -10 -3 -5 1 -10 9 -10 8
0 19 -6 23 -13 4 -8 20 -22 36 -32 15 -9 27 -24 27 -31 0 -8 15 -31 33 -51 18
-21 39 -58 46 -83 7 -25 19 -52 26 -60 7 -8 22 -53 35 -99 12 -46 24 -90 27
-97 11 -28 -40 -39 -181 -39 -103 0 -140 -3 -143 -12 -8 -23 -21 -14 -34 22
-12 32 -21 40 -43 36 -20 -4 -38 24 -32 50 4 22 -1 33 -26 54 -17 14 -37 24
-44 21 -9 -4 -14 2 -14 18 0 26 -24 51 -39 42 -6 -4 -8 4 -5 19 3 17 0 25 -10
25 -7 0 -28 18 -46 40 -26 31 -39 40 -64 40 -23 0 -41 9 -62 31 -16 17 -41 37
-55 45 -28 14 -43 56 -26 73 8 8 7 11 -2 11 -7 0 -9 5 -6 10 4 6 11 8 16 5 5
-3 6 1 3 10 -4 9 -12 13 -18 10 -6 -3 -19 -8 -28 -11 -20 -7 -24 -30 -7 -36 9
-3 9 -9 1 -25 -9 -15 -18 -19 -39 -16 -15 3 -33 12 -39 20 -13 15 -108 53
-135 53 -9 0 -19 -7 -23 -15 -4 -11 -14 -13 -38 -9 -18 4 -37 11 -42 15 -6 5
-22 9 -38 9 -15 0 -51 6 -80 14 -68 17 -182 10 -243 -15 -16 -7 -50 -19 -74
-28 -45 -16 -67 -41 -37 -41 9 0 16 -4 16 -10 0 -5 -7 -10 -15 -10 -8 0 -15
-6 -15 -12 -1 -8 -6 -6 -14 5 -13 17 -32 25 -22 9 5 -9 -29 -43 -42 -41 -29 5
-52 -4 -57 -21 -4 -11 -10 -18 -15 -15 -5 3 -10 -1 -13 -7 -3 -10 -7 -10 -20
1 -15 12 -17 11 -17 -3 0 -9 -6 -16 -14 -16 -7 0 -32 -18 -55 -40 -22 -22 -43
-40 -46 -40 -3 0 -14 -9 -26 -21 -20 -20 -20 -21 -2 -35 16 -13 16 -13 1 -8
-10 3 -24 4 -32 1 -12 -5 -12 -11 -3 -31 15 -32 46 -40 69 -19 22 20 23 43 3
43 -8 0 -15 4 -15 8 0 5 14 6 31 4 29 -4 31 -3 25 19 l-7 24 15 -25 c9 -14 15
-19 16 -12 0 6 6 12 14 12 9 0 12 7 9 21 -5 18 -3 20 16 14 16 -5 21 -2 21 13
0 15 7 19 32 20 21 0 40 9 53 24 11 13 38 31 60 41 22 10 52 25 68 32 15 8 33
12 41 9 17 -7 30 11 49 66 9 25 16 40 17 34 0 -13 60 -6 60 7 0 12 105 12 128
0 72 -36 175 -59 195 -43 8 7 33 0 82 -24 39 -18 75 -33 80 -34 6 0 23 -14 40
-31 16 -17 42 -33 58 -36 23 -5 25 -8 15 -20 -10 -13 -8 -19 11 -34 13 -11 30
-19 38 -19 8 0 27 -8 41 -18 15 -11 42 -25 60 -33 18 -8 35 -22 38 -32 3 -9
10 -15 15 -11 5 3 17 -8 26 -25 17 -29 85 -76 95 -66 3 3 11 -2 19 -12 12 -14
12 -16 -1 -11 -11 4 -15 -2 -16 -23 -1 -26 6 -34 29 -30 4 0 7 -3 7 -8 0 -5 6
-9 13 -8 45 1 56 -10 63 -63 1 -13 8 -26 14 -28 8 -3 8 -8 -1 -18 -17 -21 -32
-17 -59 16 -14 17 -34 30 -47 30 -13 0 -23 5 -23 10 0 6 -8 10 -17 10 -9 0
-25 8 -35 17 -14 12 -34 17 -69 15 -27 -1 -49 2 -49 8 0 13 -136 1 -166 -15
-13 -6 -21 -15 -17 -18 8 -8 -26 -47 -41 -47 -6 0 -21 -15 -33 -33 -24 -34
-30 -67 -14 -67 13 0 1 -41 -17 -62 -8 -10 -19 -15 -25 -11 -14 9 -3 -95 12
-110 10 -9 16 -8 27 7 11 16 17 17 26 8 9 -9 8 -12 -6 -12 -9 0 -15 -4 -12 -9
3 -5 -1 -12 -9 -15 -12 -4 -13 -10 -6 -24 5 -10 9 -24 9 -32 -2 -34 3 -51 12
-45 6 3 10 1 10 -5 0 -6 5 -8 13 -3 17 11 37 13 37 3 0 -4 -7 -10 -15 -14 -19
-7 -19 -35 0 -42 8 -3 17 -21 21 -40 3 -19 10 -31 15 -28 5 3 6 -2 3 -10 -4
-10 0 -16 10 -17 9 -1 21 -2 28 -3 6 0 16 -16 22 -34 6 -18 17 -37 25 -41 9
-6 10 -11 2 -15 -6 -4 -11 -13 -11 -19 0 -8 3 -8 9 1 6 11 9 10 13 -5 3 -13
16 -19 38 -21 52 -4 49 -12 -5 -12 -46 0 -47 -1 -32 -18 22 -24 24 -60 2 -42
-21 17 -54 4 -48 -20 3 -11 9 -17 14 -14 5 3 9 -2 9 -10 0 -9 5 -16 10 -16 6
0 10 6 10 14 0 8 7 16 15 20 8 3 15 1 15 -5 0 -6 5 -7 11 -4 6 4 8 14 5 22 -4
9 1 17 15 20 12 4 18 11 15 20 -4 10 2 13 22 11 17 -2 26 1 25 10 -2 6 2 12 7
12 6 0 10 -5 10 -11 0 -8 5 -8 15 1 8 7 15 9 15 5 0 -4 11 0 25 9 29 19 53 12
34 -10 -9 -11 -8 -14 9 -14 11 0 22 7 26 15 3 8 17 15 31 15 17 0 24 -4 19
-12 -4 -7 -3 -8 4 -4 7 4 12 13 12 19 0 7 13 23 30 37 18 15 30 34 30 48 0 13
4 20 10 17 6 -4 7 1 3 11 -5 13 -2 15 15 9 16 -4 22 -2 22 8 0 9 5 17 12 19 7
3 9 14 4 31 -3 15 -11 25 -16 22 -6 -3 -7 1 -4 9 3 9 10 16 16 16 5 0 6 9 3
20 -3 11 -2 20 3 20 20 0 37 154 20 177 -10 13 -3 33 12 33 5 0 14 -16 21 -35
18 -50 37 -42 30 13 -1 6 6 12 15 12 13 0 15 -6 10 -27 -5 -17 -3 -29 6 -34 9
-6 6 -9 -9 -9 -13 0 -23 -4 -23 -10 0 -9 14 -14 33 -11 4 0 7 -4 7 -10 0 -7
-10 -9 -26 -5 -21 6 -25 4 -21 -8 4 -9 2 -18 -3 -21 -4 -3 -10 1 -13 7 -2 7
-8 10 -12 6 -4 -4 -5 -15 -1 -24 5 -13 9 -15 18 -6 7 7 23 12 36 12 18 0 23
-4 18 -16 -3 -9 -6 -20 -6 -25 0 -5 -7 -9 -16 -9 -8 0 -12 -5 -9 -10 3 -6 17
-7 31 -4 19 5 23 3 18 -10 -3 -8 -9 -15 -12 -14 -39 5 -42 -16 -6 -35 17 -9
23 -17 15 -21 -13 -8 -15 -66 -2 -66 5 0 14 -13 19 -30 8 -21 8 -29 0 -27 -14
3 -17 -45 -3 -55 6 -5 5 -8 -2 -8 -20 0 -15 -20 5 -21 14 0 14 -2 -3 -9 -11
-5 -16 -9 -11 -9 5 -1 3 -8 -4 -16 -12 -15 -4 -21 23 -16 5 1 6 -3 2 -9 -3 -6
-10 -8 -14 -5 -5 2 -11 -14 -14 -36 -3 -22 -13 -46 -23 -53 -19 -14 -12 -36
12 -36 8 0 26 7 39 16 l25 16 -11 -31 c-9 -25 -15 -30 -30 -26 -15 5 -18 3
-12 -12 4 -10 11 -21 17 -25 7 -5 6 -8 -2 -8 -10 0 -10 -3 2 -15 8 -8 20 -15
26 -15 7 0 9 -8 5 -20 -4 -12 -2 -20 5 -20 6 0 10 -6 8 -12 -4 -23 51 -99 70
-96 17 3 17 0 4 -45 -4 -15 0 -18 19 -15 18 2 23 9 22 26 -2 12 2 22 7 22 6 0
10 -4 10 -10 0 -5 7 -10 16 -10 10 0 14 -6 10 -15 -3 -9 0 -15 9 -15 18 0 19
-27 1 -59 -9 -17 -23 -24 -45 -25 -30 -1 -31 0 -25 32 5 28 4 32 -15 32 -11 0
-21 -4 -21 -10 0 -5 5 -10 12 -10 6 0 3 -6 -7 -14 -18 -13 -18 -17 -5 -40 10
-19 19 -25 33 -20 15 5 18 2 15 -18 -4 -23 -9 -25 -40 -13 -14 6 -18 2 -18
-19 0 -21 -12 -34 -57 -63 -32 -21 -62 -36 -66 -35 -4 1 -10 -5 -13 -13 -4 -8
-12 -15 -19 -15 -18 0 -57 -22 -81 -45 -11 -11 -41 -37 -67 -59 -43 -34 -65
-68 -34 -50 7 4 9 3 4 -2 -5 -5 -12 -9 -15 -9 -19 -2 -52 -17 -52 -25 0 -5
-16 -18 -35 -30 -20 -12 -34 -27 -32 -34 2 -6 -3 -16 -12 -23 -19 -15 -71 -17
-71 -3 0 5 3 9 8 9 22 -4 32 3 32 22 0 11 -4 18 -9 15 -5 -4 -7 3 -4 13 4 16
-2 22 -31 29 -37 11 -76 6 -76 -9 0 -5 -11 -7 -25 -3 -23 6 -25 4 -25 -29 0
-20 4 -38 8 -41 5 -3 8 -15 6 -28 -1 -13 -3 -34 -3 -48 -1 -21 -15 -32 -91
-70 -50 -25 -90 -48 -90 -52 0 -5 -3 -7 -7 -7 -25 4 -43 -3 -43 -17 0 -8 -4
-13 -10 -9 -5 3 -37 1 -72 -5 -81 -14 -205 -14 -256 -1 -32 9 -39 15 -35 30 4
15 -1 18 -24 17 -15 -1 -37 -6 -47 -12 -10 -6 -28 -9 -40 -6 -20 6 -20 6 4 13
24 7 24 7 3 8 -13 1 -23 6 -23 11 0 6 -19 10 -42 10 -23 0 -49 6 -57 14 -19
17 -61 24 -78 13 -7 -4 -14 1 -18 13 -3 11 -12 20 -20 20 -25 0 -95 44 -95 59
0 9 -11 21 -25 28 -21 9 -25 9 -26 -5 0 -11 -2 -12 -6 -4 -2 6 -11 12 -19 12
-8 0 -13 5 -11 12 1 7 -4 12 -11 13 -7 0 -16 5 -20 10 -4 6 -19 16 -34 24 -15
8 -25 18 -22 23 3 4 -3 16 -12 25 -13 13 -19 14 -22 5 -8 -24 -24 -12 -18 13
7 28 4 30 -23 14 -13 -9 -23 -9 -37 -1 -10 6 -13 12 -6 12 6 0 12 7 12 16 0
11 -6 14 -20 9 -11 -4 -20 -2 -20 4 0 6 12 11 27 11 14 0 23 3 19 7 -10 10
-67 12 -60 2 3 -5 -6 -9 -20 -9 -16 0 -26 6 -27 15 -3 28 -4 33 -10 40 -12 11
3 43 22 48 22 6 26 27 4 27 -8 0 -19 9 -25 20 -9 16 -8 20 7 21 17 1 17 2 1 6
-18 4 -22 15 -19 41 1 8 -7 16 -18 19 -12 3 -21 13 -21 22 -1 12 -6 10 -22 -9
-21 -24 -21 -24 -15 -2 3 14 -1 25 -11 32 -14 8 -13 9 7 7 13 -1 26 4 28 11 3
6 -1 12 -7 12 -6 0 -18 7 -26 15 -14 13 -14 15 -1 15 9 0 18 -6 20 -12 4 -10
6 -10 6 0 1 7 -5 15 -13 18 -15 6 -10 44 5 44 5 0 9 5 9 10 0 6 -6 10 -12 9
-25 -3 -39 1 -34 10 4 5 0 11 -6 14 -7 2 -1 8 14 12 24 6 27 11 21 34 -3 14
-13 30 -21 35 -13 8 -13 10 2 21 16 12 16 14 -1 31 -17 16 -18 16 -21 1 -4
-22 -15 -21 -36 2 -17 19 -17 20 5 23 22 3 40 48 19 48 -6 0 -10 -4 -10 -10 0
-5 -5 -10 -11 -10 -6 0 -9 7 -5 15 3 8 1 15 -5 15 -6 0 -7 6 -2 13 4 6 6 22 4
35 -1 12 2 22 7 22 5 0 14 11 20 25 9 20 8 26 -6 34 -9 6 -12 11 -6 11 13 0
15 90 2 107 -6 7 -14 10 -19 7 -5 -3 -9 3 -9 12 0 14 3 15 12 6 23 -23 27 -12
22 61 -8 115 -9 157 -6 157 2 0 12 -4 22 -10 26 -14 47 13 32 43 -17 36 -24
77 -12 77 6 0 8 5 5 10 -4 7 -19 4 -40 -9 -19 -11 -36 -17 -38 -13 -2 4 -2 2
-1 -5 4 -16 -21 -24 -35 -10 -8 8 -14 8 -23 -1 -7 -7 -16 -8 -22 -3 -14 11
-116 20 -116 10 0 -4 -19 -5 -42 -2 -59 7 -118 5 -132 -5 -6 -5 -24 -9 -40
-10 -16 -1 -45 -16 -66 -34 -21 -18 -50 -41 -64 -51 -15 -10 -24 -22 -21 -26
2 -5 -7 -21 -20 -35 -14 -15 -22 -32 -18 -39 11 -19 13 -66 3 -72 -15 -9 -12
-31 5 -49 14 -14 13 -16 -10 -22 -27 -7 -35 -34 -10 -34 19 0 38 -37 29 -58
-4 -9 -6 -21 -5 -27 2 -5 5 -18 7 -29 2 -10 10 -26 19 -36 18 -20 20 -40 3
-40 -6 0 -9 -2 -6 -6 3 -3 2 -22 -3 -42 -10 -44 -3 -72 17 -72 12 0 12 -4 -2
-25 -16 -24 -15 -25 5 -25 15 0 20 -4 14 -12 -7 -12 -14 -38 -10 -38 1 0 16 4
34 9 22 7 33 6 37 -2 3 -8 8 -7 15 3 10 13 12 13 20 0 15 -23 -7 -44 -26 -25
-17 18 -18 18 -60 3 -45 -16 -41 -28 10 -29 l42 -1 -42 -11 c-29 -7 -43 -15
-42 -26 1 -20 17 -69 18 -57 1 5 8 3 16 -4 9 -7 18 -10 22 -7 3 4 -6 16 -21
28 -37 29 -23 42 18 16 l33 -22 -19 -27 c-19 -28 -13 -39 10 -16 9 9 12 7 12
-10 0 -15 -8 -24 -25 -28 -24 -6 -25 -8 -10 -24 10 -11 14 -26 10 -43 -4 -14
-2 -27 3 -31 5 -3 7 -17 4 -31 -2 -14 0 -25 5 -25 5 0 23 -13 41 -30 l33 -30
-35 0 c-40 0 -52 -12 -30 -30 8 -7 13 -18 10 -25 -5 -14 31 -38 44 -30 14 9
12 -9 -2 -23 -9 -9 -8 -12 5 -12 9 0 17 -7 17 -16 0 -11 6 -14 21 -9 15 5 19
4 15 -4 -4 -6 -14 -11 -22 -11 -8 0 -14 -7 -14 -15 0 -8 -5 -15 -11 -15 -6 0
-9 -6 -6 -14 3 -7 0 -19 -6 -25 -8 -8 -7 -11 6 -11 10 0 17 -8 17 -19 0 -11 7
-27 16 -35 8 -9 12 -16 7 -16 -4 0 3 -7 16 -16 19 -14 25 -14 32 -3 8 12 10
12 18 0 5 -7 14 -10 20 -7 6 4 11 3 11 -2 0 -5 7 -27 17 -48 9 -22 17 -49 17
-62 1 -13 8 -27 16 -32 8 -6 11 -10 7 -10 -5 0 -1 -7 8 -16 9 -9 14 -23 11
-30 -3 -8 -2 -14 3 -14 4 0 18 -9 31 -20 28 -25 41 -26 33 -2 -6 15 -5 16 11
2 11 -8 14 -16 7 -18 -14 -5 -15 -32 -1 -32 6 0 10 -7 10 -16 0 -13 3 -14 14
-5 16 13 32 -2 21 -19 -4 -6 8 -10 29 -10 20 0 36 5 36 11 0 5 4 8 9 5 5 -3
12 1 15 10 3 8 10 12 16 9 5 -3 10 -1 10 4 0 6 8 11 19 11 10 0 26 11 36 24
14 18 21 21 30 13 7 -6 10 -19 7 -29 -2 -10 -1 -26 3 -35 5 -10 7 -26 6 -35
-1 -10 2 -18 7 -18 9 0 18 -21 27 -59 4 -16 24 -31 43 -31 8 0 12 -6 10 -12
-5 -13 15 -38 29 -38 5 0 15 -9 23 -20 14 -19 67 -30 55 -11 -3 6 4 9 15 8 11
-1 20 -5 20 -10 0 -5 7 -1 16 7 20 20 54 21 54 1 0 -9 -6 -12 -15 -9 -8 4 -15
1 -15 -6 0 -9 10 -10 33 -6 17 4 41 9 52 11 89 14 125 31 125 61 0 8 14 21 31
30 25 12 29 18 18 25 -11 7 -11 9 4 9 9 0 17 -7 17 -17 0 -14 4 -12 17 7 20
30 33 40 52 40 20 0 5 -87 -20 -113 -11 -12 -17 -27 -15 -34 3 -7 0 -15 -6
-19 -7 -4 -6 -9 3 -15 11 -7 10 -9 -3 -9 -21 0 -24 -16 -6 -23 9 -4 8 -6 -2
-6 -10 -1 -16 -13 -17 -34 -2 -17 -10 -38 -20 -44 -9 -7 -13 -13 -9 -13 5 0 3
-7 -4 -15 -7 -8 -9 -15 -6 -15 4 0 0 -7 -8 -16 -19 -19 -21 -55 -4 -73 11 -12
10 -13 -6 -7 -11 4 -23 2 -27 -5 -5 -9 -18 -6 -48 9 -23 12 -50 22 -60 22 -10
0 -31 11 -47 25 -16 14 -44 28 -61 31 -18 3 -33 9 -33 13 0 4 -19 15 -42 25
-24 11 -61 28 -83 38 -125 61 -361 148 -400 148 -12 0 -26 5 -32 11 -6 6 -30
12 -52 13 -26 0 -41 5 -41 13 0 7 -8 13 -18 13 -11 0 -33 7 -49 15 -17 8 -48
16 -69 18 -22 1 -44 6 -51 10 -7 4 -34 10 -60 13 -85 9 -108 12 -108 15 0 1
-9 3 -20 5 -65 10 -80 13 -80 14 0 4 -46 11 -106 16 -45 5 -68 3 -73 -5 -4 -6
-18 -11 -30 -11 -13 0 -29 -7 -37 -16 -7 -8 -20 -13 -29 -11 -9 2 -22 -4 -29
-14 -8 -14 -8 -19 0 -19 8 0 7 -5 -2 -16 -7 -9 -13 -24 -14 -34 -1 -11 -11
-27 -23 -37 -26 -22 -21 -55 12 -72 17 -9 29 -9 56 2 39 16 168 40 191 35 14
-3 15 4 4 35 -6 13 -3 16 9 11 9 -3 19 -17 22 -29 7 -28 44 -37 162 -40 46 -1
87 -6 90 -12 4 -6 29 -13 56 -17 27 -4 55 -10 64 -14 8 -3 13 -1 9 4 -3 5 4
21 15 34 11 14 18 18 15 10 -2 -8 -7 -24 -11 -35 -5 -17 1 -22 37 -34 44 -15
82 -21 134 -24 17 -1 29 -5 27 -9 -3 -4 5 -8 18 -8 13 0 29 -5 36 -12 7 -7 12
-9 12 -4 0 4 7 0 17 -9 11 -12 25 -15 45 -11 18 3 27 2 23 -4 -6 -10 6 -14 38
-11 9 1 17 -3 17 -8 0 -6 9 -11 20 -11 11 0 19 6 17 13 -1 6 5 12 13 12 9 0
14 -8 13 -19 -2 -26 27 -48 44 -34 10 8 13 6 13 -6 0 -10 4 -15 9 -11 5 3 12
1 16 -5 9 -14 96 -51 106 -44 5 3 9 0 9 -5 0 -6 7 -11 15 -11 8 0 15 -4 15
-10 0 -5 8 -10 19 -10 10 0 30 -10 45 -21 15 -12 30 -19 33 -15 3 3 12 1 19
-5 8 -6 20 -9 28 -6 8 3 22 -3 32 -14 9 -10 22 -19 29 -19 7 0 26 -7 44 -16
34 -17 50 -42 34 -53 -5 -3 -8 -28 -8 -56 1 -27 -2 -55 -6 -60 -13 -17 -18
-105 -6 -105 6 0 3 -6 -8 -13 -14 -11 -17 -23 -13 -60 3 -25 1 -50 -5 -56 -5
-5 -11 -41 -13 -78 -4 -76 -6 -93 -17 -109 -4 -7 -6 -45 -5 -85 0 -41 -3 -89
-7 -106 -5 -22 -4 -33 4 -33 6 0 11 -7 11 -16 0 -8 -4 -12 -10 -9 -5 3 -7 0
-4 -9 3 -9 12 -12 22 -9 11 5 14 2 9 -10 -4 -11 1 -18 16 -23 20 -6 19 -8 -13
-19 -25 -9 -37 -9 -42 -1 -4 6 -9 4 -14 -7 -7 -19 13 -50 27 -42 4 3 3 -8 -3
-25 -6 -17 -8 -49 -4 -71 3 -21 2 -39 -3 -39 -5 0 -7 -9 -4 -19 3 -10 0 -28
-7 -40 -8 -17 -8 -22 3 -27 9 -3 12 -14 9 -30 -6 -34 -30 -32 -289 20 -295 59
-454 87 -463 81 -5 -3 -20 -1 -34 5 -76 28 -557 -4 -602 -41 -6 -5 -14 -6 -17
-3 -4 4 -17 0 -29 -8 -13 -8 -42 -18 -66 -22 -40 -6 -142 -35 -204 -58 -31
-12 -35 -33 -18 -103 6 -26 5 -42 -1 -46 -13 -8 -21 -217 -9 -224 5 -3 8 -24
8 -47 0 -23 5 -44 11 -46 6 -2 11 -10 11 -18 0 -9 5 -12 11 -8 8 4 8 1 1 -12
-5 -11 -7 -24 -5 -31 2 -7 -1 -21 -7 -33 -9 -16 -8 -25 1 -36 9 -11 9 -21 0
-43 -16 -37 -17 -94 -3 -99 7 -2 4 -11 -7 -24 -12 -12 -19 -34 -19 -56 0 -21
0 -43 -1 -49 -1 -10 -52 -13 -221 -13 l-220 0 0 3425 0 3425 2106 0 2107 0
156 -81z m1531 -269 c0 -194 -4 -350 -9 -350 -8 0 -50 16 -106 39 -11 5 -60
24 -110 42 -89 32 -459 212 -605 294 -154 86 -398 220 -480 263 -47 24 -89 48
-94 53 -6 5 290 9 697 9 l707 0 0 -350z m-3346 -385 c-4 -8 -10 -15 -15 -15
-4 0 -6 7 -3 15 4 8 10 15 15 15 4 0 6 -7 3 -15z m290 -26 c14 -7 23 -16 20
-21 -3 -5 1 -20 10 -33 16 -24 15 -25 -13 -40 -32 -16 -106 -20 -115 -6 -3 4
3 16 14 26 11 10 20 30 20 45 0 42 17 50 64 29z m-1554 -589 c0 -5 -4 -10 -10
-10 -5 0 -10 5 -10 10 0 6 5 10 10 10 6 0 10 -4 10 -10z m2160 -120 c0 -5 -2
-10 -4 -10 -3 0 -8 5 -11 10 -3 6 -1 10 4 10 6 0 11 -4 11 -10z m-207 -287
c-7 -2 -19 -2 -25 0 -7 3 -2 5 12 5 14 0 19 -2 13 -5z m497 -39 c0 -8 -5 -12
-10 -9 -6 4 -8 11 -5 16 9 14 15 11 15 -7z m45 -4 c3 -5 1 -10 -4 -10 -6 0
-11 5 -11 10 0 6 2 10 4 10 3 0 8 -4 11 -10z m-295 -83 c13 -29 29 -55 35 -59
7 -5 7 -13 -1 -25 -18 -28 -31 -26 -38 8 -5 25 -9 29 -20 20 -11 -9 -13 -4
-10 29 4 41 1 44 -44 40 -23 -2 -23 -1 -8 23 26 39 57 25 86 -36z m597 20 c4
-6 1 -13 -5 -15 -7 -2 -12 -12 -12 -23 0 -11 -7 -19 -16 -19 -9 0 -12 -5 -8
-12 12 -18 14 -59 3 -53 -5 3 -19 -4 -31 -16 -13 -12 -17 -19 -10 -15 7 4 12
1 12 -8 0 -9 9 -16 21 -16 11 0 17 -4 14 -10 -10 -17 -50 -11 -73 10 -12 11
-26 20 -32 20 -7 0 -9 8 -5 20 5 16 2 20 -19 20 -18 0 -24 -4 -20 -15 4 -8 11
-15 17 -15 7 0 8 -3 1 -10 -14 -14 -56 0 -50 16 3 8 1 14 -4 14 -15 0 -12 17
5 34 10 9 11 17 5 21 -6 4 -8 11 -5 16 4 5 -1 12 -9 15 -9 3 -14 15 -12 27 3
20 13 23 87 32 83 11 132 5 146 -18z m-385 -30 c2 -13 13 -24 28 -28 16 -4 19
-7 8 -8 -22 -1 -21 0 -4 -42 12 -29 12 -37 1 -53 -23 -31 -45 -13 -45 36 0 34
-6 51 -28 74 -21 23 -26 35 -18 46 13 21 54 3 58 -25z m427 2 c-16 -10 -23 -4
-14 10 3 6 11 8 17 5 6 -4 5 -9 -3 -15z m-875 -4 c-4 -8 -11 -12 -16 -9 -6 4
-5 10 3 15 19 12 19 11 13 -6z m80 -27 c9 -17 13 -34 10 -37 -8 -8 -44 37 -44
55 0 24 18 15 34 -18z m96 2 c0 -5 -2 -10 -4 -10 -3 0 -8 5 -11 10 -3 6 -1 10
4 10 6 0 11 -4 11 -10z m160 0 c0 -5 -9 -10 -21 -10 -11 0 -17 5 -14 10 3 6
13 10 21 10 8 0 14 -4 14 -10z m-482 -25 c-3 -3 -9 2 -12 12 -6 14 -5 15 5 6
7 -7 10 -15 7 -18z m169 0 c-12 -25 -27 -33 -27 -15 0 12 22 39 32 40 3 0 1
-11 -5 -25z m103 15 c0 -5 -4 -10 -10 -10 -5 0 -10 5 -10 10 0 6 5 10 10 10 6
0 10 -4 10 -10z m755 -6 c-9 -9 -18 -14 -21 -11 -9 9 6 27 22 27 13 0 13 -2
-1 -16z m-2357 -32 c2 -7 -2 -10 -12 -6 -9 3 -16 11 -16 16 0 13 23 5 28 -10z
m1436 -6 c-3 -8 5 -23 17 -35 13 -12 17 -21 11 -21 -7 0 -12 -7 -12 -15 0 -8
3 -14 8 -14 22 4 30 -3 28 -25 0 -13 -4 -22 -8 -19 -5 2 -8 -10 -8 -26 0 -21
5 -31 15 -31 8 0 15 -4 15 -9 0 -5 8 -17 18 -27 9 -10 17 -20 18 -23 0 -3 3
-13 7 -21 11 -30 14 -70 4 -70 -5 0 -7 -10 -4 -22 8 -28 -19 -78 -41 -78 -28
0 -39 13 -51 56 -8 30 -18 43 -33 48 -17 4 -20 8 -11 17 9 9 8 15 -2 25 -16
16 -29 19 -20 4 3 -5 1 -10 -4 -10 -14 0 -14 16 0 42 9 16 7 24 -5 36 -13 13
-16 13 -16 2 0 -7 -3 -10 -7 -7 -3 4 2 16 12 27 18 19 17 20 -4 20 -18 0 -21
4 -16 20 4 12 2 20 -5 20 -6 0 -8 11 -6 25 4 21 1 25 -20 25 -15 0 -24 5 -22
11 4 13 68 21 68 8 0 -5 7 -6 16 -2 13 5 13 7 2 14 -12 8 -4 13 16 10 5 -1 6
5 3 14 -4 9 -1 15 8 15 8 0 15 7 15 15 0 8 4 15 10 15 5 0 7 -6 4 -14z m636
-2 c0 -2 -7 -4 -15 -4 -8 0 -15 4 -15 10 0 5 7 7 15 4 8 -4 15 -8 15 -10z
m-369 -48 c6 -6 9 -6 9 2 0 6 7 9 15 6 9 -4 15 0 15 10 0 9 4 16 10 16 19 0
-7 -45 -29 -48 -25 -4 -28 -19 -3 -25 14 -4 14 -5 -3 -6 -24 -1 -46 40 -37 72
6 21 6 21 10 2 2 -11 8 -24 13 -29z m-99 17 c0 -10 0 -31 -1 -47 -2 -16 3 -33
11 -38 10 -7 10 -11 1 -15 -20 -8 -15 -23 7 -23 22 0 27 -15 8 -26 -8 -5 -6
-11 7 -20 17 -12 17 -14 -1 -31 -16 -16 -17 -16 -11 -1 9 24 -17 47 -45 41
-19 -4 -20 -3 -8 6 10 7 11 11 3 11 -7 0 -10 7 -7 15 4 8 10 12 15 9 5 -3 9 4
9 16 0 19 -1 20 -16 6 -29 -30 -46 -16 -18 15 17 18 19 42 9 77 -6 18 -4 22
14 22 13 0 22 -7 23 -17z m563 -42 c-3 -6 -11 -11 -17 -11 -6 0 -6 6 2 15 14
17 26 13 15 -4z m-311 -63 c15 -21 23 -48 10 -36 -3 4 -18 3 -34 -2 -17 -5
-32 -4 -39 3 -14 14 -51 19 -51 7 0 -6 -4 -10 -9 -10 -5 0 -4 11 2 24 7 14 14
21 17 16 3 -5 17 -11 30 -13 14 -3 34 -9 45 -13 14 -5 11 0 -10 19 l-30 26 27
1 c17 0 33 -8 42 -22z m318 -1 c-2 -9 2 -17 8 -17 5 0 10 -4 10 -10 0 -5 -7
-7 -15 -4 -9 4 -15 0 -15 -7 0 -11 -2 -11 -10 1 -6 9 -5 17 3 23 9 7 9 10 0
14 -20 7 -15 25 5 21 10 -2 16 -11 14 -21z m-68 -21 c-3 -8 -1 -24 5 -35 14
-26 -3 -38 -25 -17 -8 9 -11 16 -5 16 6 0 10 3 10 8 -3 20 2 42 11 42 5 0 7
-6 4 -14z m-554 -6 c0 -5 -2 -10 -4 -10 -3 0 -8 5 -11 10 -3 6 -1 10 4 10 6 0
11 -4 11 -10z m-230 -14 c0 -3 -4 -8 -10 -11 -5 -3 -10 -1 -10 4 0 6 5 11 10
11 6 0 10 -2 10 -4z m410 -20 c0 -3 -4 -8 -10 -11 -5 -3 -10 -1 -10 4 0 6 5
11 10 11 6 0 10 -2 10 -4z m400 -41 c0 -7 8 -19 18 -24 9 -6 11 -11 5 -11 -21
0 -15 -30 10 -51 14 -12 16 -17 6 -13 -10 3 -20 1 -24 -5 -3 -6 -11 -11 -17
-11 -7 0 -6 5 1 14 10 12 9 20 -4 40 -10 14 -21 26 -26 26 -13 0 -11 24 3 38
16 16 28 15 28 -3z m-343 -38 c4 -7 0 -8 -11 -4 -10 4 -24 7 -32 7 -9 0 -13 4
-10 9 7 11 44 3 53 -12z m-2082 3 c3 -5 1 -10 -4 -10 -6 0 -11 5 -11 10 0 6 2
10 4 10 3 0 8 -4 11 -10z m-82 -37 c19 2 40 0 46 -6 7 -7 17 -7 34 0 15 7 29
8 41 1 9 -5 34 -8 54 -6 34 3 37 1 34 -22 -8 -70 -5 -91 16 -120 21 -27 19
-35 -9 -32 -3 1 -4 -10 -1 -23 2 -14 8 -22 13 -19 5 3 9 -2 9 -11 0 -9 -4 -14
-8 -11 -5 3 -9 -15 -9 -39 -1 -29 4 -46 13 -49 8 -3 14 -10 14 -16 0 -6 -5 -8
-11 -4 -6 3 -15 0 -20 -7 -6 -11 -11 -11 -21 -1 -18 18 -26 15 -23 -13 3 -27
-2 -30 -25 -15 -8 5 -10 10 -3 10 13 0 15 88 2 96 -5 2 -5 12 -2 20 5 13 1 15
-15 10 -15 -5 -29 0 -48 17 l-26 24 26 20 c14 11 22 23 19 27 -10 9 -45 7 -39
-3 3 -5 -3 -11 -14 -14 -11 -3 -23 -1 -26 4 -8 14 -24 11 -24 -6 0 -8 -6 -12
-14 -9 -8 3 -12 13 -9 25 3 10 0 19 -6 19 -25 0 -9 31 19 37 40 8 48 23 22 41
-12 8 -22 25 -22 37 0 15 -6 22 -17 21 -10 0 -19 7 -21 19 -2 15 -1 16 6 7 6
-9 22 -12 45 -9z m2144 11 c-3 -3 -12 -4 -19 -1 -8 3 -5 6 6 6 11 1 17 -2 13
-5z m30 -19 c0 -8 -6 -15 -13 -15 -16 0 -26 -28 -11 -33 9 -3 8 -8 -2 -20 -15
-19 -46 -23 -56 -7 -3 6 -1 10 5 10 7 0 9 8 5 21 -5 15 -4 19 4 15 6 -4 11 -3
11 3 0 8 24 25 56 41 0 0 1 -7 1 -15z m297 0 c-4 -8 -8 -15 -10 -15 -2 0 -4 7
-4 15 0 8 4 15 10 15 5 0 7 -7 4 -15z m-2601 -41 c-4 -11 -9 -12 -19 -3 -20
16 -17 28 5 22 12 -3 17 -11 14 -19z m2125 -20 l11 -35 -32 7 c-18 3 -35 8
-40 11 -13 8 5 25 20 19 12 -5 14 -1 10 14 -9 36 19 22 31 -16z m637 -14 c17
0 23 -5 22 -19 0 -11 -5 -17 -9 -15 -10 6 -22 -42 -14 -61 3 -8 1 -15 -4 -15
-6 0 -10 -4 -10 -9 0 -5 9 -7 20 -4 16 4 19 2 14 -11 -3 -9 -12 -16 -20 -16
-7 0 -18 -8 -23 -17 -6 -10 -11 -12 -11 -5 0 17 -20 15 -20 -2 0 -8 14 -19 30
-25 17 -5 30 -17 30 -25 0 -16 34 -31 50 -21 11 7 14 -18 3 -29 -4 -4 -8 -15
-8 -24 0 -9 -6 -16 -12 -15 -9 2 -8 -6 3 -30 16 -33 16 -33 77 -29 61 3 61 3
34 -12 -19 -10 -35 -13 -45 -7 -19 9 -42 4 -42 -10 0 -5 11 -9 25 -9 17 0 23
-4 19 -14 -3 -8 0 -17 5 -21 6 -3 9 -10 6 -15 -3 -5 -1 -11 5 -15 20 -12 9
-22 -20 -19 -16 2 -30 0 -30 -5 0 -5 -3 -17 -6 -25 -5 -12 -2 -15 12 -9 14 5
16 3 11 -12 -5 -11 -1 -23 10 -32 16 -12 13 -13 -27 -11 -25 2 -51 9 -59 16
-7 7 -21 10 -32 7 -12 -4 -23 1 -31 14 -7 12 -18 21 -25 21 -7 0 -13 7 -13 15
0 8 -3 15 -7 15 -5 0 -9 10 -9 23 -3 35 -13 87 -19 97 -3 6 -1 10 6 10 7 0 10
13 7 35 -2 19 0 35 5 35 5 0 6 13 2 30 -4 20 -1 37 9 52 17 23 22 59 9 57 -25
-4 -53 2 -48 11 3 5 12 7 21 3 8 -3 23 2 33 11 15 13 20 14 24 4 2 -7 8 -10
12 -5 5 4 -1 26 -13 48 -15 29 -18 40 -8 36 9 -4 12 0 9 13 -6 21 18 72 25 52
2 -6 14 -12 27 -12z m-2725 -19 c0 -17 4 -32 8 -35 9 -6 8 -62 -1 -58 -4 1
-13 2 -19 2 -9 0 -8 4 2 10 13 9 11 14 -12 31 -16 11 -28 25 -28 31 0 6 6 6
15 -2 11 -9 15 -9 15 -1 0 7 -14 18 -30 25 -36 15 -29 26 17 26 30 0 33 -3 33
-29z m3220 9 c0 -5 -5 -10 -11 -10 -5 0 -7 5 -4 10 3 6 8 10 11 10 2 0 4 -4 4
-10z m-600 -19 c0 -6 -4 -13 -10 -16 -5 -3 -10 1 -10 9 0 9 5 16 10 16 6 0 10
-4 10 -9z m-2585 -11 c3 -5 -1 -10 -9 -10 -9 0 -16 5 -16 10 0 6 4 10 9 10 6
0 13 -4 16 -10z m-220 -40 c3 -6 -1 -7 -9 -4 -18 7 -21 14 -7 14 6 0 13 -4 16
-10z m41 -37 c-7 -7 -26 7 -26 19 0 6 6 6 15 -2 9 -7 13 -15 11 -17z m49 -3
c3 -5 -1 -10 -9 -10 -8 0 -18 5 -21 10 -3 6 1 10 9 10 8 0 18 -4 21 -10z
m2955 0 c0 -10 -14 -14 -39 -10 -9 1 -12 -4 -7 -15 3 -9 2 -13 -4 -10 -14 9
-12 32 3 38 21 9 47 7 47 -3z m-2844 -9 c27 -3 22 -31 -8 -46 -36 -17 -41 -18
-33 -6 3 5 -8 18 -25 27 -16 10 -30 21 -30 25 0 6 45 6 96 0z m78 -23 c-3 -4
4 -8 14 -8 15 0 19 -5 15 -20 -5 -19 -6 -20 -20 -3 -10 13 -16 15 -19 6 -5
-12 -54 -19 -54 -8 0 13 37 42 52 42 9 -1 14 -5 12 -9z m2776 -1 c0 -7 -7 -22
-15 -33 -12 -16 -14 -17 -15 -2 0 23 11 48 21 48 5 0 9 -6 9 -13z m-3035 -17
c-3 -5 -10 -10 -16 -10 -5 0 -9 5 -9 10 0 6 7 10 16 10 8 0 12 -4 9 -10z
m2985 -20 c0 -5 -7 -7 -15 -4 -8 4 -15 8 -15 10 0 2 7 4 15 4 8 0 15 -4 15
-10z m-2925 -20 c3 -5 1 -10 -4 -10 -6 0 -11 5 -11 10 0 6 2 10 4 10 3 0 8 -4
11 -10z m335 -25 c0 -1 -13 -5 -30 -7 -32 -5 -42 8 -12 14 16 4 42 -1 42 -7z
m-285 -25 c10 -11 24 -20 32 -20 27 0 17 -96 -12 -113 -8 -4 -13 -12 -10 -18
4 -5 -3 -9 -15 -9 -17 0 -19 3 -11 19 7 12 7 29 0 52 -32 102 -26 135 16 89z
m445 10 c0 -5 -2 -10 -4 -10 -3 0 -8 5 -11 10 -3 6 -1 10 4 10 6 0 11 -4 11
-10z m-90 -59 c0 -6 -4 -13 -10 -16 -5 -3 -10 1 -10 9 0 9 5 16 10 16 6 0 10
-4 10 -9z m-173 -37 c-3 -3 -12 -4 -19 -1 -8 3 -5 6 6 6 11 1 17 -2 13 -5z
m2683 -4 c0 -5 -4 -10 -10 -10 -5 0 -10 5 -10 10 0 6 5 10 10 10 6 0 10 -4 10
-10z m-2698 -53 c30 -25 55 -80 39 -85 -7 -2 -7 -12 0 -29 5 -15 7 -34 3 -42
-11 -23 -11 -61 -1 -61 5 0 1 -7 -7 -16 -9 -8 -16 -22 -16 -29 0 -19 -47 -122
-59 -129 -5 -4 -17 -3 -26 0 -13 5 -14 8 -3 15 9 6 7 9 -9 9 -13 0 -23 5 -23
10 0 6 5 10 11 10 6 0 9 7 5 15 -3 8 0 15 7 15 7 0 -1 11 -18 24 l-30 24 28
-5 c30 -6 36 7 12 27 -17 14 -21 35 -4 24 8 -4 9 0 4 15 -4 12 -2 21 4 21 19
0 12 18 -9 25 -11 3 -20 11 -20 16 0 6 5 7 11 3 10 -6 29 12 29 29 0 4 -13 7
-30 7 -16 0 -30 -4 -30 -9 0 -5 -9 -7 -20 -4 -28 7 -25 18 5 20 59 6 65 8 71
26 3 10 3 21 0 24 -3 3 1 12 9 20 8 8 15 23 15 34 0 25 19 24 52 -4z m-144
-52 c0 -20 -3 -23 -14 -14 -11 9 -14 8 -14 -1 0 -10 -3 -10 -15 0 -15 13 -21
35 -7 27 5 -3 33 4 48 12 1 1 2 -10 2 -24z m367 -1 c19 -19 23 -29 15 -42 -5
-10 -10 -12 -10 -4 0 6 -4 12 -9 12 -5 0 -7 -9 -4 -20 3 -11 12 -20 19 -20 8
0 14 -4 14 -10 0 -5 -4 -10 -10 -10 -5 0 -8 -10 -6 -22 3 -13 5 -23 6 -23 1 0
4 -11 6 -25 2 -13 10 -27 16 -32 7 -4 10 -10 6 -13 -12 -12 13 -62 35 -73 19
-9 20 -11 3 -11 -13 -1 -16 -6 -12 -18 4 -9 14 -40 23 -67 16 -51 38 -80 54
-70 5 3 9 -2 9 -10 0 -9 -6 -16 -12 -16 -9 0 -9 -3 -2 -8 12 -8 14 -52 2 -52
-4 0 -8 6 -8 13 -1 7 -6 5 -14 -5 -17 -23 -22 -23 -29 2 -3 13 -17 22 -36 26
-17 4 -34 10 -37 15 -3 5 2 6 10 3 9 -3 16 -1 16 5 0 19 -40 13 -40 -6 -1 -17
-2 -16 -15 1 -14 18 -15 18 -52 -4 -21 -12 -35 -19 -31 -15 4 5 0 14 -10 21
-23 18 -32 17 -32 -1 0 -8 -7 -15 -16 -15 -8 0 -13 -4 -10 -9 3 -5 -1 -11 -9
-15 -8 -3 -15 -14 -15 -25 0 -11 -5 -21 -11 -23 -6 -2 -12 -16 -12 -31 -1 -15
-6 -27 -10 -27 -5 0 -5 -9 -2 -20 4 -11 2 -20 -4 -20 -6 0 -11 -11 -11 -25 0
-41 -17 -28 -30 23 -6 26 -14 53 -16 60 -2 6 -17 12 -34 12 -36 0 -40 17 -6
26 16 4 23 11 19 20 -3 8 1 14 8 14 9 0 10 3 3 10 -5 5 -8 25 -6 44 3 29 9 35
30 38 30 3 58 46 42 62 -15 15 -12 26 5 26 8 0 15 -4 15 -10 0 -5 5 -10 12
-10 9 0 9 3 0 12 -18 18 -15 25 18 32 28 5 43 26 19 26 -17 0 1 21 28 31 25 9
25 10 8 29 -11 12 -13 20 -6 20 7 0 9 9 5 25 -4 15 -2 25 5 25 6 0 11 7 11 15
0 8 5 15 11 15 17 0 49 40 49 61 0 11 -11 20 -32 24 l-32 7 25 14 c22 12 22
13 4 14 -20 1 -20 1 -1 15 11 8 14 15 8 15 -7 0 -12 5 -12 10 0 21 59 10 85
-16z m-488 0 c-3 -3 -12 -4 -19 -1 -8 3 -5 6 6 6 11 1 17 -2 13 -5z m383 -84
c0 -5 -7 -7 -15 -4 -8 4 -15 8 -15 10 0 2 7 4 15 4 8 0 15 -4 15 -10z m-293
-46 c-3 -3 -12 -4 -19 -1 -8 3 -5 6 6 6 11 1 17 -2 13 -5z m464 -7 c-1 -12
-15 -9 -19 4 -3 6 1 10 8 8 6 -3 11 -8 11 -12z m-514 -113 c-3 -3 -12 -4 -19
-1 -8 3 -5 6 6 6 11 1 17 -2 13 -5z m83 -114 c0 -5 -4 -10 -9 -10 -6 0 -13 5
-16 10 -3 6 1 10 9 10 9 0 16 -4 16 -10z m15 -99 c-3 -6 -11 -8 -17 -5 -6 4
-5 9 3 15 16 10 23 4 14 -10z m300 -63 c6 -3 31 -9 57 -13 34 -5 45 -11 41
-21 -3 -9 1 -14 12 -14 11 0 15 5 12 15 -4 8 -2 17 3 20 6 4 10 -1 10 -9 0
-10 9 -16 26 -16 15 0 23 -4 19 -10 -4 -6 -15 -8 -26 -5 -29 9 -23 -8 11 -33
26 -19 30 -29 30 -68 0 -61 -33 -103 -110 -138 -33 -15 -65 -29 -72 -30 -7 -1
-18 -4 -23 -8 -6 -3 -22 -4 -37 -1 -22 4 -27 11 -33 51 -4 26 -12 53 -18 61
-9 12 -9 13 1 7 18 -11 12 25 -6 40 -11 8 -11 12 2 23 19 16 21 47 4 54 -10 4
-10 8 2 16 8 5 17 8 21 5 8 -4 19 31 19 61 0 15 6 21 23 20 12 0 27 -3 32 -7z
m255 -120 c0 -9 3 -9 12 0 14 14 28 16 28 3 0 -5 -8 -12 -17 -14 -13 -3 -11
-5 6 -6 13 0 34 -13 47 -27 13 -14 29 -22 34 -19 6 3 10 2 10 -4 0 -6 7 -8 15
-5 9 4 19 -3 26 -18 11 -23 99 -98 117 -98 5 0 17 -9 27 -20 10 -11 22 -17 26
-14 5 3 9 1 9 -4 0 -15 108 -65 126 -58 12 4 15 2 10 -9 -3 -10 1 -15 14 -15
10 0 21 -4 24 -9 6 -10 -50 -7 -84 4 -12 4 -28 1 -36 -6 -9 -8 -18 -9 -22 -3
-7 9 -20 14 -62 21 -14 3 -34 8 -45 13 -64 26 -87 31 -119 27 -22 -3 -42 1
-53 9 -17 13 -17 14 1 25 15 9 16 13 5 20 -11 7 -9 9 5 9 20 0 20 0 0 14 -18
14 -18 15 -1 21 23 10 22 32 -4 40 -16 5 -18 9 -8 21 17 21 7 25 -24 9 -20
-10 -27 -11 -27 -2 0 7 -9 -3 -20 -21 -11 -18 -20 -41 -20 -52 0 -11 -4 -20
-9 -20 -5 0 -11 -15 -13 -34 -2 -19 0 -32 4 -30 4 3 8 -2 8 -10 0 -8 -5 -18
-11 -21 -6 -4 -9 -23 -8 -44 2 -24 -1 -35 -9 -33 -17 3 -15 -28 3 -34 8 -4 12
-10 9 -15 -3 -5 -10 -7 -15 -4 -5 4 -13 -2 -17 -13 -4 -10 -22 -36 -40 -57
-25 -28 -36 -35 -45 -26 -14 14 -30 14 -21 0 5 -8 -1 -10 -19 -7 -20 4 -27 1
-29 -15 -2 -11 -10 -22 -18 -24 -11 -4 -12 -2 -2 5 7 5 10 16 7 24 -4 9 0 18
10 22 25 9 0 49 -26 41 -13 -4 -19 -2 -19 9 0 19 -4 19 -33 5 -21 -10 -21 -10
-3 5 11 9 28 13 39 10 18 -6 18 -5 2 20 -10 14 -21 26 -25 26 -4 0 -7 16 -8
37 -1 21 -10 45 -21 57 -20 21 -20 21 2 23 76 8 127 22 127 35 0 6 7 7 16 4
11 -4 18 1 21 15 3 11 11 18 18 15 13 -5 91 72 113 112 10 18 10 22 0 22 -7 1
-3 9 9 19 l22 18 -22 22 c-12 11 -16 21 -9 21 7 0 12 -5 12 -12z m1470 -118
c0 -5 -2 -10 -4 -10 -3 0 -8 5 -11 10 -3 6 -1 10 4 10 6 0 11 -4 11 -10z
m-1880 -14 c15 -20 9 -61 -10 -61 -9 0 -15 10 -16 28 -1 15 4 27 10 27 6 0 4
5 -4 10 -8 5 -10 10 -4 10 6 0 17 -7 24 -14z m-77 -23 c-7 -2 -19 -2 -25 0 -7
3 -2 5 12 5 14 0 19 -2 13 -5z m-4 -62 c-15 -5 -22 6 -14 19 6 9 10 9 16 -1 5
-8 4 -15 -2 -18z m535 -22 c18 3 18 2 2 -14 -9 -10 -18 -16 -19 -14 -2 2 -9
13 -17 23 -13 18 -13 19 0 11 8 -5 24 -8 34 -6z m50 -34 c8 -8 24 -15 35 -15
11 0 23 -5 26 -11 4 -6 13 -8 20 -5 15 5 35 -12 35 -31 0 -7 -4 -13 -10 -13
-5 0 -10 7 -10 15 0 8 -4 15 -10 15 -5 0 -10 -9 -10 -20 0 -11 -4 -20 -10 -20
-5 0 -10 6 -10 12 0 7 -8 2 -17 -11 -16 -23 -17 -23 -24 -5 -7 16 -8 15 -7 -6
2 -46 -2 -55 -32 -68 -49 -22 -39 -43 20 -41 37 2 49 6 46 16 -3 7 3 17 12 22
10 6 12 11 5 11 -7 0 -13 7 -13 15 0 15 11 19 39 15 8 -1 17 3 20 9 4 5 32 11
63 12 48 2 62 -2 92 -25 20 -15 41 -24 46 -21 6 3 10 1 10 -4 0 -16 39 -53 50
-46 18 11 4 -41 -18 -65 -13 -14 -30 -33 -39 -42 -9 -10 -20 -15 -24 -12 -8 5
-13 -9 -10 -28 0 -4 -7 -7 -17 -7 -9 0 -44 -3 -77 -6 -61 -6 -142 15 -131 34
3 4 -1 17 -9 27 -8 10 -15 29 -15 42 0 21 -37 47 -50 35 -7 -7 23 -22 35 -17
5 3 0 -3 -12 -12 -28 -20 -29 -45 -3 -69 11 -10 20 -24 20 -32 0 -7 9 -13 20
-13 11 0 20 -5 20 -11 0 -7 9 -9 21 -6 15 4 23 0 26 -14 6 -23 29 -25 37 -3 6
15 8 15 24 1 16 -14 41 -21 69 -18 7 0 22 11 33 24 12 12 25 23 31 23 5 1 16
2 25 3 8 0 13 5 10 9 -2 4 4 13 14 20 12 7 21 8 25 2 11 -17 23 -11 29 15 4
14 11 25 16 25 17 0 11 -14 -20 -50 -16 -19 -29 -44 -30 -56 0 -15 -17 -29
-65 -53 -63 -31 -69 -32 -148 -26 -53 4 -86 11 -93 21 -6 8 -18 14 -27 14 -10
0 -14 6 -11 14 3 9 -3 17 -15 21 -12 4 -18 12 -14 20 3 8 -2 18 -11 21 -9 3
-16 13 -16 21 0 8 -4 12 -9 9 -5 -4 -7 3 -4 14 4 14 0 20 -11 20 -14 0 -23 32
-16 65 1 5 -8 1 -19 -9 -24 -22 -26 -18 -8 16 7 14 19 23 27 21 12 -4 12 -3 2
5 -18 12 -5 63 14 55 10 -3 12 0 8 10 -3 8 0 18 7 23 8 4 10 3 5 -4 -5 -8 -2
-10 8 -6 9 3 13 10 10 15 -3 5 -1 9 4 9 20 0 6 45 -18 58 -25 13 -25 14 8 8
17 -3 32 -4 32 -2 0 18 -16 36 -32 36 -10 0 -16 5 -13 10 9 14 21 12 39 -5z
m-494 -30 c0 -8 -4 -15 -9 -15 -13 0 -22 16 -14 24 11 11 23 6 23 -9z m1752
-49 c4 -18 1 -22 -13 -19 -15 4 -16 8 -6 24 15 24 14 24 19 -5z m88 9 c0 -8 7
-15 16 -15 11 0 14 -5 10 -16 -3 -9 -6 -24 -6 -34 0 -19 -15 -21 -39 -6 -8 5
-16 4 -20 -2 -4 -7 -12 -8 -21 -2 -10 6 -11 10 -3 10 7 0 10 7 7 15 -4 11 -2
13 9 9 11 -4 17 3 22 25 7 32 25 43 25 16z m-850 -5 c0 -5 -2 -10 -4 -10 -3 0
-8 5 -11 10 -3 6 -1 10 4 10 6 0 11 -4 11 -10z m-903 -22 c-3 -8 -6 -5 -6 6
-1 11 2 17 5 13 3 -3 4 -12 1 -19z m-34 -3 c-2 -5 -14 -11 -28 -12 -25 -2 -32
7 -18 21 10 10 48 3 46 -9z m1100 -29 c17 6 23 -6 11 -19 -9 -9 -44 11 -44 26
0 9 2 9 8 -1 5 -7 16 -10 25 -6z m-233 -16 c0 -5 -7 -7 -15 -4 -8 4 -15 8 -15
10 0 2 7 4 15 4 8 0 15 -4 15 -10z m1164 -34 c-4 -13 -3 -16 6 -11 8 5 11 3 8
-6 -3 -8 -12 -13 -21 -11 -8 1 -18 -7 -22 -18 -6 -20 -25 -28 -25 -10 0 6 4
10 8 10 5 0 8 15 7 33 -3 48 3 59 26 44 12 -8 17 -18 13 -31z m-361 4 c-3 -11
-9 -17 -15 -14 -5 3 -4 12 3 20 16 19 18 18 12 -6z m-674 -7 c21 -17 21 -19 6
-50 -13 -25 -23 -33 -43 -32 -15 0 -21 3 -14 6 6 2 9 9 6 14 -3 6 0 18 8 27
12 15 11 16 -4 3 -10 -7 -19 -11 -19 -7 -5 23 -4 32 4 44 13 17 31 15 56 -5z
m654 -28 c8 -16 7 -18 -4 -7 -7 6 -21 12 -31 12 -23 0 -23 9 0 26 13 9 18 10
21 1 2 -7 8 -21 14 -32z m-433 4 c0 -5 4 -7 10 -4 5 3 18 1 28 -4 13 -7 23 -6
32 2 10 9 11 9 6 0 -5 -9 1 -13 18 -13 13 0 26 6 29 13 3 9 7 9 17 0 7 -6 19
-9 26 -6 8 3 14 -1 14 -11 0 -9 3 -15 8 -15 28 5 52 -3 52 -17 0 -9 9 -18 20
-21 11 -3 17 -9 14 -14 -3 -5 -10 -7 -15 -3 -6 3 -9 0 -8 -7 3 -23 -13 -79
-23 -79 -5 0 -6 -5 -2 -11 3 -6 1 -15 -6 -19 -16 -10 -2 -33 15 -26 8 3 16 0
19 -7 6 -16 24 9 32 43 13 62 44 80 44 27 0 -20 6 -37 13 -40 9 -3 7 -9 -5
-24 -13 -14 -16 -27 -10 -49 12 -45 4 -67 -31 -92 -43 -29 -48 -28 -46 11 1
17 0 37 -1 42 -2 6 0 18 4 28 12 26 -1 49 -26 45 -19 -3 -22 -9 -23 -45 0 -29
-4 -43 -13 -43 -9 0 -6 -10 9 -32 31 -44 38 -51 76 -73 29 -17 34 -17 45 -4 7
8 24 23 38 34 20 16 22 17 11 2 -13 -16 -12 -17 10 -9 16 6 25 19 27 37 3 19
0 25 -8 20 -9 -5 -10 -1 -6 13 5 15 2 22 -14 27 -11 3 -20 13 -20 21 0 12 4
12 20 4 20 -11 21 -9 18 52 -2 35 -7 67 -13 71 -6 6 -6 10 3 14 15 6 15 24 0
60 -6 15 -10 32 -9 36 0 4 -3 17 -9 27 -9 16 -7 20 5 20 9 0 14 -4 10 -9 -10
-16 12 -22 39 -10 14 7 28 20 31 31 4 10 14 18 23 18 15 0 15 -2 2 -10 -11 -7
-5 -8 19 -4 31 7 33 6 26 -16 -5 -15 -2 -26 6 -31 12 -8 12 -10 0 -18 -7 -5
-10 -14 -7 -20 4 -6 1 -13 -6 -16 -8 -3 -14 -16 -15 -28 -2 -21 -2 -21 9 -2
15 28 14 28 35 17 10 -5 27 -6 38 -1 l20 8 -20 1 c-19 1 -19 1 -2 14 23 18 22
25 -10 38 l-28 12 29 4 c16 2 34 -2 41 -10 7 -7 29 -56 49 -109 56 -153 67
-189 61 -199 -3 -6 -2 -10 3 -10 18 0 9 -54 -11 -71 -19 -15 -20 -19 -7 -34
14 -17 13 -18 -13 -13 -23 4 -28 1 -34 -19 -7 -32 9 -42 57 -38 47 5 71 -8 43
-24 -34 -17 -35 -40 -6 -67 22 -21 28 -35 30 -77 1 -29 4 -76 7 -104 3 -37 1
-53 -7 -53 -9 0 -9 -2 -1 -8 11 -7 10 -334 -1 -427 -12 -99 -22 -173 -31 -225
-5 -36 -37 -142 -66 -220 -27 -76 -43 -109 -89 -191 -46 -80 -210 -244 -271
-271 -15 -7 -28 -16 -28 -19 0 -3 -6 -6 -12 -7 -7 -1 -46 -6 -86 -11 -41 -6
-79 -14 -85 -19 -7 -5 -79 -8 -162 -7 -158 2 -185 8 -234 52 -28 27 -41 29
-41 8 0 -8 -5 -15 -10 -15 -16 0 -24 31 -10 40 7 4 8 10 3 13 -6 4 -10 19 -11
34 -1 47 -6 56 -40 84 -18 15 -28 29 -22 31 8 2 8 11 1 31 -9 23 -15 27 -34
22 -17 -6 -19 -5 -10 5 7 8 8 22 3 41 -7 22 -5 29 6 29 16 0 20 80 5 108 -5
10 -5 27 2 42 16 41 15 139 -3 146 -13 5 -12 8 3 19 24 18 30 131 8 153 -12
11 -12 15 -1 22 7 4 9 13 6 19 -11 17 5 36 16 20 8 -11 9 -11 5 1 -2 8 -12 13
-22 12 -16 -3 -17 -1 -6 12 7 8 20 12 29 9 15 -6 15 -5 4 10 -12 14 -12 19 2
32 18 19 20 31 7 40 -6 3 -4 25 5 54 11 40 13 75 5 120 -1 2 -7 -2 -15 -8 -11
-10 -16 -9 -23 2 -4 8 -17 17 -28 20 -16 4 -14 5 7 6 20 1 29 8 37 31 5 17 17
30 25 30 21 0 33 49 15 61 -8 5 -9 9 -3 9 17 0 27 92 12 102 -9 5 -10 10 -2
16 39 27 61 112 29 112 -8 0 -15 4 -15 9 0 5 -3 17 -7 26 -5 14 -2 16 14 11
14 -5 23 -1 29 11 11 26 14 63 5 63 -13 0 -8 29 6 34 7 3 13 12 13 21 0 8 4
15 10 15 5 0 7 6 4 13 -3 8 4 37 16 66 15 39 17 53 7 56 -37 11 -40 13 -15 14
21 1 29 8 39 36 12 32 29 48 29 26 0 -20 32 -41 56 -37 37 7 67 16 91 28 19 9
20 14 11 31 -8 16 -8 22 2 25 9 3 9 6 -1 13 -11 7 -9 9 6 9 16 0 17 2 6 9 -8
5 -21 6 -30 3 -13 -5 -14 -3 -3 10 10 13 10 17 -4 22 -17 6 -54 -19 -54 -36 0
-17 -52 -57 -66 -51 -16 6 -13 67 5 117 6 15 10 30 10 34 -5 31 4 54 24 61 26
11 42 -1 43 -32 2 -72 4 -77 25 -77 16 0 20 5 16 19 -3 11 1 22 9 25 7 3 11
12 8 21 -3 8 -1 15 5 15 20 0 12 20 -11 30 -13 5 -17 9 -9 9 12 1 12 4 -1 19
-32 37 -31 42 11 42 23 0 41 -5 41 -11z m300 1 c0 -5 -5 -10 -11 -10 -5 0 -7
5 -4 10 3 6 8 10 11 10 2 0 4 -4 4 -10z m70 1 c0 -12 -29 -23 -41 -15 -5 3 -7
10 -4 15 8 12 45 12 45 0z m530 -19 c0 -10 9 -23 20 -30 11 -7 20 -19 20 -27
0 -8 8 -19 18 -24 9 -6 12 -11 6 -11 -13 0 -16 -57 -3 -65 16 -10 10 -25 -8
-18 -11 4 -14 3 -9 -5 4 -7 2 -12 -5 -12 -9 0 -9 -3 0 -14 9 -11 9 -15 0 -18
-7 -2 -13 -12 -15 -21 -1 -9 1 -15 4 -13 4 2 13 -2 20 -10 10 -11 9 -17 -6
-32 -10 -10 -21 -26 -25 -35 -9 -25 -27 -21 -22 4 3 12 1 27 -3 33 -4 6 -7 18
-8 26 -4 35 -17 59 -37 64 -19 5 -20 8 -7 16 11 7 11 10 2 10 -7 0 -10 5 -6
11 4 7 9 30 11 53 4 53 10 69 23 61 19 -12 10 7 -12 25 -18 14 -20 21 -11 32
17 20 53 20 53 0z m-61 -29 c14 -31 12 -33 -16 -22 -16 6 -23 17 -23 33 0 32
22 25 39 -11z m-1594 -44 c-4 -5 -13 -9 -21 -9 -12 0 -12 2 -2 14 14 15 32 11
23 -5z m491 -4 c-3 -9 0 -15 9 -15 8 0 15 -4 15 -10 0 -5 -7 -7 -16 -3 -11 4
-15 1 -12 -12 2 -10 -2 -20 -8 -22 -16 -5 -28 29 -13 37 14 10 14 21 -3 31 -9
6 -6 9 11 9 16 0 22 -4 17 -15z m-1616 -79 c0 -3 -4 -8 -10 -11 -5 -3 -10 -1
-10 4 0 6 5 11 10 11 6 0 10 -2 10 -4z m0 -121 c0 -8 -4 -15 -9 -15 -13 0 -22
16 -14 24 11 11 23 6 23 -9z m4877 9 c-3 -3 -12 -4 -19 -1 -8 3 -5 6 6 6 11 1
17 -2 13 -5z m33 -124 c0 -5 -7 -7 -15 -4 -8 4 -15 8 -15 10 0 2 7 4 15 4 8 0
15 -4 15 -10z m-2147 -617 c-7 -2 -19 -2 -25 0 -7 3 -2 5 12 5 14 0 19 -2 13
-5z m-1313 -69 c0 -8 -5 -12 -10 -9 -6 4 -8 11 -5 16 9 14 15 11 15 -7z m-48
-26 c-7 -7 -12 -8 -12 -2 0 6 3 14 7 17 3 4 9 5 12 2 2 -3 -1 -11 -7 -17z
m-32 -652 c0 -2 -7 -9 -15 -16 -13 -11 -14 -10 -9 4 5 14 24 23 24 12z m30
-107 c0 -6 -4 -7 -10 -4 -5 3 -10 11 -10 16 0 6 5 7 10 4 6 -3 10 -11 10 -16z
m-1740 -195 c0 -8 -4 -12 -10 -9 -5 3 -10 10 -10 16 0 5 5 9 10 9 6 0 10 -7
10 -16z m3767 -56 c-3 -8 -6 -5 -6 6 -1 11 2 17 5 13 3 -3 4 -12 1 -19z m-492
-28 c3 -6 -1 -7 -9 -4 -18 7 -21 14 -7 14 6 0 13 -4 16 -10z m555 -15 c0 -7
13 -18 29 -23 35 -12 32 -3 61 -252 12 -100 22 -287 18 -330 -1 -14 -2 -46 -2
-72 l-1 -48 -146 0 c-167 0 -159 -5 -159 92 0 26 -4 58 -10 72 -5 14 -11 68
-13 120 -2 52 -8 101 -14 108 -11 13 -30 85 -39 148 -3 19 -7 40 -9 47 -2 6 7
28 21 48 13 20 24 45 24 55 0 11 3 21 8 21 4 1 17 3 29 4 12 1 28 5 37 8 11 4
16 1 16 -10 0 -12 3 -13 14 -4 7 6 32 12 54 14 23 1 47 8 53 14 14 14 29 8 29
-12z m530 5 c0 -11 -4 -20 -9 -20 -5 0 -7 9 -4 20 3 11 7 20 9 20 2 0 4 -9 4
-20z m-325 -48 c3 -7 3 -18 -1 -23 -3 -5 4 -9 15 -9 12 0 21 -4 21 -10 0 -5
16 -10 35 -10 19 0 35 -4 35 -8 0 -15 44 -29 90 -28 36 1 51 -5 75 -26 17 -16
36 -28 43 -28 7 0 16 -10 21 -22 14 -37 34 -217 32 -287 -1 -34 3 -68 8 -75 6
-7 10 -35 10 -62 -1 -27 1 -58 3 -69 3 -19 -3 -20 -160 -23 -96 -1 -161 1
-158 7 3 5 -4 20 -15 35 -18 23 -18 26 -4 26 9 0 15 6 12 13 -2 6 0 23 5 37 6
17 4 46 -8 93 -9 38 -14 84 -11 104 7 38 -18 113 -37 113 -6 0 -4 5 4 10 8 5
11 10 6 10 -5 0 -3 6 3 14 8 10 9 16 1 21 -5 3 -10 22 -10 41 0 19 -6 37 -12
40 -8 2 -14 25 -15 51 -1 25 -7 51 -13 57 -14 14 -13 23 5 23 8 0 17 -7 20
-15z m-2275 -26 c-14 -14 -24 0 -16 21 6 15 8 15 16 3 6 -9 5 -19 0 -24z
m1370 8 c0 -8 -4 -12 -10 -9 -5 3 -10 10 -10 16 0 5 5 9 10 9 6 0 10 -7 10
-16z m2195 -54 c3 -5 -1 -10 -10 -10 -9 0 -13 5 -10 10 3 6 8 10 10 10 2 0 7
-4 10 -10z m-1884 -72 c1 -22 7 -60 24 -143 33 -165 39 -233 35 -378 0 -16 -8
-18 -61 -15 -49 2 -64 7 -73 22 -6 11 -22 30 -35 43 -13 13 -21 24 -17 24 3 1
10 2 15 3 19 2 24 16 11 31 -7 9 -10 25 -6 41 5 17 1 35 -9 51 -9 13 -15 32
-13 41 1 9 -1 22 -5 29 -9 15 2 63 15 63 5 0 6 5 3 10 -4 6 -10 8 -14 5 -5 -2
-14 16 -22 42 -11 42 -11 50 8 82 16 27 31 38 64 47 59 16 79 16 80 2z m-334
-53 c8 -25 8 -34 -1 -32 -13 2 -24 24 -25 50 -1 29 15 19 26 -18z m-2150 -7
c-3 -8 -6 -5 -6 6 -1 11 2 17 5 13 3 -3 4 -12 1 -19z m3660 -30 c6 -31 41 -40
130 -34 31 2 50 0 47 -6 -12 -19 28 -48 68 -48 37 0 38 -1 32 -27 -3 -16 -8
-35 -10 -43 -3 -8 -7 -50 -10 -94 -3 -52 -10 -84 -20 -94 -11 -10 -15 -29 -12
-59 l3 -43 -120 0 -120 0 -2 62 c-1 34 -5 69 -9 77 -4 9 -6 25 -5 37 1 11 -5
26 -13 33 -8 7 -12 20 -9 28 4 9 2 14 -3 10 -5 -3 -14 6 -21 19 -9 19 -8 24 3
24 8 0 14 7 14 15 0 8 -5 15 -12 15 -6 0 -4 8 6 19 16 17 16 22 -3 71 -11 30
-25 57 -31 60 -7 4 12 7 40 6 47 -1 52 -3 57 -28z m782 -208 l-1 -240 -176 2
-177 3 -5 75 c-3 41 -9 80 -13 87 -4 6 -3 14 2 18 6 3 9 36 8 74 -2 55 0 66
10 56 8 -8 38 -12 83 -12 38 1 70 -1 70 -4 0 -3 20 -10 45 -16 l46 -10 14 32
c7 19 23 39 36 45 19 11 20 14 7 21 -22 12 -12 47 21 81 14 15 27 27 29 27 1
1 2 -107 1 -239z m-2529 149 c0 -18 -2 -20 -15 -9 -13 11 -13 15 -3 21 18 12
18 12 18 -12z m60 11 c-8 -5 -19 -10 -25 -10 -5 0 -3 5 5 10 8 5 20 10 25 10
6 0 3 -5 -5 -10z m296 -36 c-4 -9 -2 -22 2 -28 5 -6 10 -18 10 -26 7 -100 15
-147 28 -162 9 -9 13 -22 9 -28 -4 -6 1 -21 12 -33 15 -19 16 -20 1 -8 -21 16
-23 5 -9 -47 l10 -32 -172 0 c-117 0 -168 3 -161 10 6 6 9 24 6 40 -5 36 -29
40 -55 9 -17 -20 -18 -22 -1 -40 17 -19 13 -19 -189 -19 -179 0 -206 2 -201
15 4 8 16 15 28 15 11 0 32 9 46 20 14 11 30 20 37 20 7 0 16 8 22 18 5 9 13
16 18 15 15 -4 83 18 83 27 0 5 7 7 15 4 8 -4 21 -2 28 3 25 20 44 20 82 3 48
-22 59 -17 51 24 -7 35 23 95 46 93 7 -1 13 3 13 8 0 6 -3 9 -7 8 -5 -2 -8 2
-8 7 0 15 16 12 33 -5 13 -12 17 -12 32 5 9 10 23 16 30 14 7 -3 15 2 18 10 4
9 12 16 18 16 7 0 26 11 43 24 28 21 51 31 80 35 4 0 5 -6 2 -15z m-201 -14
c3 -5 2 -10 -4 -10 -5 0 -13 5 -16 10 -3 6 -2 10 4 10 5 0 13 -4 16 -10z
m1052 -316 c-3 -3 -12 -4 -19 -1 -8 3 -5 6 6 6 11 1 17 -2 13 -5z"/>
<path d="M3285 5750 c3 -5 8 -10 11 -10 2 0 4 5 4 10 0 6 -5 10 -11 10 -5 0
-7 -4 -4 -10z"/>
<path d="M3205 5490 c3 -5 8 -10 11 -10 2 0 4 5 4 10 0 6 -5 10 -11 10 -5 0
-7 -4 -4 -10z"/>
<path d="M2247 5349 c3 -10 9 -19 14 -19 5 0 9 -13 9 -28 0 -16 8 -37 18 -48
11 -13 16 -29 12 -49 -4 -25 -10 -30 -35 -30 -25 0 -30 -5 -36 -35 -4 -19 -4
-53 0 -75 4 -22 7 -76 5 -120 -1 -44 1 -84 4 -89 3 -5 6 -37 8 -70 5 -90 13
-132 33 -152 10 -11 15 -29 13 -45 -2 -15 1 -30 7 -33 6 -4 11 -15 11 -26 0
-10 7 -20 15 -24 8 -3 15 -14 15 -24 0 -10 12 -25 28 -33 15 -8 30 -18 34 -24
4 -5 11 -11 15 -11 26 -5 53 -18 53 -25 0 -5 9 -9 19 -9 11 0 22 -4 26 -9 3
-5 19 -9 35 -9 16 1 27 5 24 10 -3 4 3 8 13 8 11 0 24 5 31 12 6 6 20 12 29
13 10 1 38 14 62 29 l44 28 -24 19 -24 18 23 -4 c13 -2 29 -2 36 1 18 7 17 54
0 72 -8 7 -14 19 -13 25 0 9 2 9 5 1 8 -18 40 -5 52 21 8 18 8 25 -1 29 -9 3
-9 5 1 5 20 2 14 27 -10 40 -13 6 -16 10 -6 7 10 -3 18 3 22 17 10 37 7 47
-10 40 -14 -5 -15 -3 -6 14 8 14 8 23 0 31 -9 9 -9 12 0 12 21 0 2 71 -24 95
-13 12 -24 28 -24 34 0 7 -4 9 -10 6 -5 -3 -12 7 -16 22 -8 37 -46 93 -61 93
-7 0 -13 8 -13 18 0 9 -12 28 -26 42 -24 22 -26 30 -21 78 5 43 3 54 -10 59
-9 4 -21 -1 -28 -10 -8 -11 -27 -17 -54 -17 -35 0 -41 -3 -41 -21 0 -16 -5
-20 -20 -16 -11 3 -20 1 -20 -5 0 -5 -4 -6 -10 -3 -5 3 -10 17 -10 30 0 13 -7
30 -15 39 -8 8 -17 34 -18 58 -3 38 -6 43 -28 42 -13 0 -37 -4 -52 -9 -20 -5
-27 -4 -25 5 2 7 -4 14 -13 15 -12 2 -15 -3 -12 -16z m100 -241 c-3 -8 -6 -5
-6 6 -1 11 2 17 5 13 3 -3 4 -12 1 -19z m137 -7 c-10 -11 -22 -17 -28 -14 -6
3 -5 0 2 -8 13 -15 16 -29 5 -29 -16 0 -31 16 -38 39 -6 21 -5 23 15 18 14 -3
29 0 37 9 22 22 28 10 7 -15z m-1 -81 c-3 -11 -7 -20 -9 -20 -2 0 -4 9 -4 20
0 11 4 20 9 20 5 0 7 -9 4 -20z m208 -49 c-7 -5 -11 -13 -7 -19 3 -6 -5 -9
-19 -8 -14 0 -25 2 -25 3 0 16 16 29 38 31 19 1 23 -1 13 -7z m32 -40 c4 -17
-2 -19 -31 -12 -2 1 20 30 24 31 1 0 4 -9 7 -19z m-27 -45 c16 -17 9 -43 -17
-56 -23 -13 -29 -13 -29 0 0 6 7 10 16 10 9 0 14 6 11 13 -2 6 -11 12 -20 12
-8 0 -19 4 -23 8 -4 4 2 7 14 7 12 0 22 5 22 10 0 14 9 12 26 -4z m4 -76 c0
-5 -4 -10 -9 -10 -6 0 -13 5 -16 10 -3 6 1 10 9 10 9 0 16 -4 16 -10z m32 -42
c-6 -6 -16 -7 -22 -3 -9 6 -9 9 1 16 17 10 34 0 21 -13z m-337 2 c3 -5 -1 -10
-9 -10 -9 0 -16 5 -16 10 0 6 4 10 9 10 6 0 13 -4 16 -10z m73 -30 c2 -20 1
-22 -7 -10 -6 8 -11 11 -11 5 0 -12 -20 16 -20 28 0 21 35 -1 38 -23z m342 -9
c0 -5 -9 -11 -19 -14 -14 -3 -18 -1 -14 9 6 15 33 19 33 5z m-72 -31 c-9 -13
-14 -16 -20 -7 -4 6 -2 15 5 19 21 14 28 9 15 -12z m-311 -22 c8 -7 9 -17 3
-33 -11 -28 -3 -37 20 -25 15 8 17 6 13 -10 -4 -16 0 -20 18 -20 18 0 20 -3
11 -12 -14 -14 -17 -52 -3 -44 4 3 6 -6 3 -19 -2 -14 -8 -27 -12 -30 -13 -8
-81 25 -75 35 3 6 1 10 -5 10 -6 0 -8 5 -4 12 5 8 11 5 20 -7 8 -10 16 -16 19
-14 3 3 -7 21 -20 40 -14 18 -22 35 -17 37 13 4 -2 67 -15 65 -9 -2 -10 15 -4
34 2 4 36 -10 48 -19z m233 -28 c8 0 19 -30 25 -67 2 -12 -3 -24 -11 -27 -8
-3 -14 -18 -14 -32 0 -15 -3 -24 -7 -21 -3 4 -12 2 -19 -4 -7 -6 -18 -8 -23
-5 -14 9 -2 36 15 36 15 0 18 9 15 52 0 15 4 30 9 33 15 9 12 25 -4 25 -8 0
-18 5 -22 12 -5 8 -2 9 10 5 10 -4 21 -7 26 -7z m-120 -110 c0 -5 -4 -10 -10
-10 -5 0 -10 5 -10 10 0 6 5 10 10 10 6 0 10 -4 10 -10z"/>
<path d="M827 5234 c7 -3 9 -12 6 -20 -3 -8 1 -14 11 -14 9 0 16 4 16 8 0 12
-22 32 -34 31 -6 0 -6 -3 1 -5z"/>
<path d="M1005 4980 c3 -5 8 -10 11 -10 2 0 4 5 4 10 0 6 -5 10 -11 10 -5 0
-7 -4 -4 -10z"/>
<path d="M3085 4940 c4 -6 11 -8 16 -5 14 9 11 15 -7 15 -8 0 -12 -5 -9 -10z"/>
<path d="M4354 4877 c-3 -9 3 -24 13 -35 10 -10 23 -27 29 -37 6 -11 15 -15
22 -11 19 11 14 40 -8 54 -12 7 -18 18 -14 25 4 7 4 9 -1 5 -4 -4 -14 -3 -21
3 -10 9 -15 7 -20 -4z"/>
<path d="M4425 4770 c-8 -13 22 -70 41 -77 31 -11 37 13 12 51 -23 36 -41 45
-53 26z"/>
<path d="M3812 4668 c6 -18 28 -21 28 -4 0 9 -7 16 -16 16 -9 0 -14 -5 -12
-12z"/>
<path d="M4750 4321 c0 -5 7 -11 15 -15 9 -3 15 0 15 9 0 8 -7 15 -15 15 -8 0
-15 -4 -15 -9z"/>
<path d="M4406 4275 c4 -8 8 -15 10 -15 2 0 4 7 4 15 0 8 -4 15 -10 15 -5 0
-7 -7 -4 -15z"/>
<path d="M4777 4233 c-12 -11 -8 -23 7 -23 8 0 16 7 20 15 5 15 -14 21 -27 8z"/>
<path d="M3492 4214 c-13 -14 -6 -74 9 -74 5 0 9 -5 9 -11 0 -6 -7 -8 -16 -5
-17 7 -48 -19 -40 -33 8 -13 -4 -42 -15 -35 -18 11 -22 -29 -5 -57 15 -26 15
-29 2 -29 -9 0 -16 5 -16 11 0 6 -13 1 -29 -10 -15 -11 -31 -18 -34 -15 -3 3
-3 -3 0 -14 4 -16 1 -19 -21 -15 -33 7 -33 -5 1 -34 28 -25 21 -49 -11 -37
-13 5 -14 9 -5 20 9 11 7 14 -10 14 -14 0 -20 -4 -15 -11 4 -7 -1 -10 -12 -7
-19 3 -54 -24 -54 -43 0 -5 -4 -8 -9 -4 -6 3 -9 -7 -9 -22 3 -60 -1 -73 -23
-73 -16 0 -19 4 -14 23 6 18 5 20 -6 10 -7 -7 -18 -13 -24 -13 -5 0 -4 4 3 9
10 6 10 10 -3 21 -12 10 -15 10 -15 -3 0 -11 -6 -14 -15 -11 -8 4 -21 1 -29
-5 -7 -6 -28 -11 -47 -12 -41 -1 -243 8 -246 11 -2 2 -6 3 -10 5 -23 6 -50 21
-67 37 -11 10 -29 18 -40 18 -15 0 -17 3 -8 8 10 7 9 15 -4 41 -13 26 -21 32
-38 27 -11 -3 -27 -6 -34 -6 -8 0 -10 -8 -6 -24 4 -16 1 -25 -10 -29 -20 -8
-21 -31 -1 -47 8 -7 12 -16 9 -21 -3 -5 0 -8 8 -7 7 2 12 -2 11 -9 -2 -6 6
-15 17 -18 11 -3 26 -13 34 -21 14 -13 41 -22 77 -23 9 -1 20 -12 23 -26 4
-14 11 -23 17 -20 12 8 41 -14 34 -25 -6 -10 49 -18 80 -12 17 3 22 9 19 25
-4 21 -4 21 4 2 5 -11 7 -26 4 -33 -3 -9 4 -11 29 -6 19 3 39 7 44 8 6 1 16 5
23 9 6 5 16 6 21 2 6 -3 14 2 19 11 5 9 14 14 21 10 17 -11 13 -29 -5 -22 -10
4 -14 1 -12 -6 6 -16 56 -29 64 -16 3 5 12 7 20 4 9 -3 14 2 14 14 0 16 4 18
23 11 12 -5 21 -16 19 -25 -2 -9 2 -16 8 -16 5 0 9 6 8 13 -2 8 8 11 31 9 19
-1 37 -4 39 -6 7 -8 -29 -74 -53 -96 -23 -21 -24 -21 -59 -5 -20 10 -54 17
-76 17 -28 -1 -40 3 -40 13 0 9 -6 12 -15 9 -8 -4 -15 -2 -15 3 0 5 -6 10 -12
11 -7 0 -25 3 -40 5 -15 2 -39 -1 -52 -8 -31 -16 -118 -26 -109 -12 4 6 -3 8
-18 3 -56 -17 -89 -18 -95 -3 -6 18 -32 16 -44 -2 -5 -9 -10 -10 -14 -2 -4 6
-4 15 -1 21 3 6 -1 7 -9 4 -11 -4 -19 3 -26 20 -5 15 -21 39 -34 53 -20 21
-22 29 -12 37 15 13 3 76 -15 76 -6 0 -7 5 -4 11 4 5 -1 26 -10 45 -9 19 -13
43 -10 54 5 16 2 20 -17 21 -21 0 -21 1 -4 8 14 6 16 10 7 15 -7 5 -11 24 -10
46 2 21 -2 44 -8 52 -5 7 -15 27 -20 43 -13 40 -39 45 -46 8 -3 -15 -1 -33 4
-39 5 -6 6 -14 3 -17 -8 -8 -6 -126 2 -139 3 -5 8 -30 10 -56 9 -118 14 -142
36 -198 16 -39 23 -72 20 -96 -7 -59 57 -171 91 -160 4 1 7 -9 7 -22 0 -13 7
-26 15 -30 8 -3 15 -14 15 -25 0 -10 7 -22 15 -25 9 -3 21 -19 26 -36 7 -19
20 -32 36 -36 18 -5 21 -9 12 -15 -11 -6 -11 -9 1 -13 28 -9 45 -10 73 -3 20
5 32 3 44 -9 10 -10 27 -14 45 -12 22 4 28 1 28 -14 0 -11 4 -17 9 -14 5 4 11
1 13 -5 6 -18 48 0 48 21 0 10 -5 20 -10 22 -6 2 -1 9 11 17 20 12 21 11 16
-8 -3 -12 -2 -21 3 -21 20 0 81 32 87 45 3 8 11 15 19 15 17 0 18 17 2 24 -7
2 8 3 35 0 37 -4 47 -2 47 10 0 8 12 27 28 41 15 14 27 29 27 34 0 5 12 20 27
34 15 14 24 28 21 31 -4 3 4 17 17 31 13 14 19 25 13 25 -6 0 -9 9 -6 20 4 16
8 18 19 9 11 -9 14 -8 14 2 0 8 11 23 25 33 13 10 23 22 20 26 -2 4 9 20 26
36 31 30 59 77 59 101 0 7 -7 25 -16 38 -15 23 -15 25 0 25 9 0 16 5 16 10 0
6 9 10 20 10 13 0 18 5 14 15 -4 8 1 17 10 21 10 4 14 13 11 24 -3 9 3 24 15
35 11 10 20 25 20 34 0 9 7 27 16 39 9 13 14 32 11 43 -3 10 -2 19 3 19 10 0
30 81 23 93 -3 6 -1 7 5 3 18 -11 33 31 26 71 -9 45 -28 66 -76 84 -20 7 -35
16 -33 20 9 13 -31 16 -43 3z m-92 -344 c0 -5 -2 -10 -4 -10 -3 0 -8 5 -11 10
-3 6 -1 10 4 10 6 0 11 -4 11 -10z m-55 -70 c-3 -5 -11 -10 -16 -10 -6 0 -7 5
-4 10 3 6 11 10 16 10 6 0 7 -4 4 -10z m-589 -376 c-6 -15 0 -16 39 -11 25 4
45 3 45 -2 0 -4 24 -8 54 -9 30 0 68 -3 85 -7 18 -4 31 -3 31 3 0 11 25 10 36
-1 4 -4 19 -7 34 -7 15 0 36 -11 50 -25 l24 -25 -37 -31 c-21 -17 -35 -35 -32
-39 16 -26 -196 -31 -268 -6 -26 9 -54 16 -62 16 -9 0 -15 9 -15 23 0 14 -11
28 -29 38 -33 19 -48 68 -22 70 9 1 25 2 36 3 11 0 19 7 18 14 -2 6 2 12 8 12
6 0 8 -7 5 -16z m469 -144 c3 -5 -3 -10 -14 -10 -12 0 -21 5 -21 10 0 6 6 10
14 10 8 0 18 -4 21 -10z m-540 -50 c3 -5 -1 -10 -9 -10 -9 0 -16 5 -16 10 0 6
4 10 9 10 6 0 13 -4 16 -10z"/>
<path d="M4746 4155 c-13 -20 -14 -25 -2 -25 7 0 16 10 19 22 9 31 2 33 -17 3z"/>
<path d="M2780 4070 c0 -5 7 -10 15 -10 8 0 15 5 15 10 0 6 -7 10 -15 10 -8 0
-15 -4 -15 -10z"/>
<path d="M4640 4030 c0 -5 5 -10 10 -10 6 0 10 5 10 10 0 6 -4 10 -10 10 -5 0
-10 -4 -10 -10z"/>
<path d="M3385 4010 c3 -5 8 -10 11 -10 2 0 4 5 4 10 0 6 -5 10 -11 10 -5 0
-7 -4 -4 -10z"/>
<path d="M4582 4008 c-7 -7 -27 -18 -45 -25 -18 -6 -24 -12 -14 -12 9 -1 17
-8 17 -18 0 -9 3 -13 8 -9 4 4 7 13 7 19 0 7 7 12 15 12 22 1 40 14 40 31 0
17 -12 18 -28 2z"/>
<path d="M2500 3961 c0 -5 8 -15 18 -20 9 -6 13 -11 8 -11 -6 0 -1 -7 10 -16
13 -11 15 -17 6 -20 -15 -7 -6 -24 12 -24 8 0 16 9 19 20 3 13 0 20 -9 20 -8
0 -15 6 -15 13 -1 6 -2 19 -3 27 -1 17 -46 27 -46 11z"/>
<path d="M4445 3945 c-27 -8 -51 -19 -53 -25 -2 -5 -8 -8 -12 -5 -5 3 -8 -4
-7 -15 1 -16 6 -20 22 -15 51 16 90 23 97 19 4 -3 8 9 8 25 0 17 -1 31 -2 30
-2 0 -25 -7 -53 -14z"/>
<path d="M2575 3930 c3 -5 12 -7 20 -3 21 7 19 13 -6 13 -11 0 -18 -4 -14 -10z"/>
<path d="M1850 3790 c0 -5 5 -10 10 -10 6 0 10 5 10 10 0 6 -4 10 -10 10 -5 0
-10 -4 -10 -10z"/>
<path d="M4372 3757 c9 -6 7 -7 -6 -3 -32 11 -86 -4 -86 -24 0 -10 -9 -20 -20
-23 -11 -3 -20 -10 -20 -16 0 -6 9 -11 20 -11 11 0 20 6 20 14 0 23 131 39
152 18 5 -5 11 -34 13 -63 2 -30 4 -59 4 -66 1 -6 10 -10 21 -8 14 3 20 -2 20
-16 0 -10 6 -19 13 -19 17 0 20 49 5 67 -9 11 -9 16 1 23 7 4 9 10 4 13 -5 3
-10 29 -10 56 -1 28 -4 55 -8 61 -3 5 -35 9 -71 8 -42 -1 -60 -5 -52 -11z"/>
<path d="M4212 3664 c-6 -7 -12 -16 -12 -19 0 -11 43 0 47 11 6 17 -20 23 -35
8z"/>
<path d="M4152 3629 c2 -7 10 -15 17 -17 8 -3 12 1 9 9 -2 7 -10 15 -17 17 -8
3 -12 -1 -9 -9z"/>
<path d="M4441 3557 c-1 -5 4 -17 10 -29 6 -11 8 -31 4 -45 -5 -23 -7 -24 -18
-9 -12 16 -13 16 -13 -1 -1 -10 -5 -27 -9 -38 -7 -16 -6 -18 6 -7 16 15 29 16
29 1 0 -5 -4 -8 -9 -5 -5 3 -12 -6 -15 -20 -5 -19 -11 -24 -26 -19 -22 7 -28
-10 -7 -19 9 -5 9 -7 -1 -12 -12 -6 -8 -24 6 -24 17 0 62 49 52 55 -8 5 -6 14
4 30 9 13 13 31 9 41 -5 14 -3 15 15 5 18 -10 21 -8 19 9 -1 11 -6 20 -12 20
-5 0 -1 7 10 16 17 13 18 16 5 24 -8 5 -22 10 -32 10 -9 0 -19 6 -21 13 -3 6
-6 8 -6 4z"/>
<path d="M1250 3391 c0 -5 7 -11 15 -15 8 -3 15 -1 15 3 0 5 -7 11 -15 15 -8
3 -15 1 -15 -3z"/>
<path d="M1280 3340 c0 -5 6 -10 13 -10 8 0 7 -4 -3 -10 -8 -5 -10 -10 -4 -10
6 0 17 6 23 14 9 11 8 15 -5 20 -21 8 -24 8 -24 -4z"/>
<path d="M3826 3328 c5 -8 2 -9 -9 -5 -10 3 -17 2 -17 -3 0 -6 9 -10 20 -10
11 0 20 7 20 15 0 8 -5 15 -11 15 -5 0 -7 -5 -3 -12z"/>
<path d="M3730 3264 c-12 -32 -12 -34 1 -34 5 0 7 5 3 12 -5 8 -2 9 10 5 14
-5 17 -3 12 8 -5 13 -1 13 31 0 40 -17 46 -16 37 9 -4 10 -14 15 -30 12 -13
-3 -24 0 -24 5 0 20 -31 7 -40 -17z"/>
<path d="M3840 3270 c0 -5 5 -10 10 -10 6 0 10 5 10 10 0 6 -4 10 -10 10 -5 0
-10 -4 -10 -10z"/>
<path d="M3920 3260 c-13 -8 -13 -10 2 -10 9 0 20 5 23 10 8 13 -5 13 -25 0z"/>
<path d="M3670 3220 c0 -5 7 -7 15 -4 8 4 15 8 15 10 0 2 -7 4 -15 4 -8 0 -15
-4 -15 -10z"/>
<path d="M3697 3202 c-22 -24 -21 -31 2 -25 10 3 22 0 25 -6 4 -6 12 -11 17
-11 6 0 7 6 2 13 -4 6 -8 18 -8 26 0 22 -20 23 -38 3z"/>
<path d="M4254 3160 c-4 -16 -15 -37 -25 -46 -10 -9 -16 -21 -13 -26 9 -14 15
-64 7 -52 -5 7 -16 8 -28 3 -17 -7 -18 -8 -2 -8 10 -1 22 -11 27 -23 6 -17 9
-18 9 -6 1 9 10 24 22 32 13 9 18 19 13 27 -5 9 -2 10 12 5 10 -4 15 -4 12 0
-4 4 -3 15 3 25 7 13 6 19 -1 19 -6 0 -8 5 -5 10 3 6 2 10 -3 10 -5 0 -9 7 -9
15 0 10 11 15 31 15 26 1 28 2 13 11 -39 23 -57 19 -63 -11z"/>
<path d="M3887 3151 c-3 -16 -9 -41 -13 -56 -6 -22 -4 -26 7 -20 12 8 12 6 1
-8 -8 -9 -11 -21 -7 -27 3 -5 2 -10 -4 -10 -5 0 -3 -13 5 -30 9 -16 22 -30 30
-30 8 0 12 -4 9 -10 -3 -5 1 -10 9 -10 24 0 29 20 10 41 -9 10 -13 19 -8 19 5
0 3 4 -5 9 -11 7 -9 10 8 16 16 5 21 13 19 36 -1 16 -8 29 -15 29 -7 0 -13 5
-13 10 0 6 7 10 15 10 9 0 15 9 15 22 0 12 -3 19 -6 15 -4 -3 -13 0 -21 8 -21
22 -30 18 -36 -14z"/>
<path d="M3651 3140 c-12 -7 -12 -11 -2 -24 17 -20 27 -20 35 0 3 8 2 12 -3 9
-5 -3 -11 1 -13 10 -2 10 -7 12 -17 5z"/>
<path d="M3620 3091 c0 -25 6 -27 13 -6 4 8 2 17 -3 20 -6 4 -10 -3 -10 -14z"/>
<path d="M3675 3081 c-6 -11 9 -23 19 -14 9 9 7 23 -3 23 -6 0 -12 -4 -16 -9z"/>
<path d="M4179 2993 c-13 -15 -12 -15 9 -4 23 12 28 21 13 21 -5 0 -15 -7 -22
-17z"/>
<path d="M4070 2980 c0 -5 5 -10 10 -10 6 0 10 5 10 10 0 6 -4 10 -10 10 -5 0
-10 -4 -10 -10z"/>
<path d="M3967 2973 c-12 -11 -8 -23 8 -23 8 0 15 -4 15 -9 0 -5 11 -8 25 -8
13 0 22 3 19 8 -3 5 2 9 10 9 9 0 16 5 16 11 0 7 -11 8 -29 4 -17 -3 -32 -2
-36 4 -7 12 -19 14 -28 4z"/>
<path d="M4135 2960 c21 -24 26 -25 19 -6 -3 8 -13 17 -22 21 -13 5 -13 2 3
-15z"/>
<path d="M1417 943 c-4 -3 -7 -11 -7 -17 0 -6 5 -5 12 2 6 6 9 14 7 17 -3 3
-9 2 -12 -2z"/>
<path d="M3955 4940 c3 -5 8 -10 11 -10 2 0 4 5 4 10 0 6 -5 10 -11 10 -5 0
-7 -4 -4 -10z"/>
<path d="M1453 4469 c11 -7 23 -7 35 0 14 9 11 10 -18 10 -29 0 -32 -1 -17
-10z"/>
<path d="M1557 4403 c-22 -6 -17 -27 6 -31 12 -2 17 3 17 17 0 12 -1 20 -2 20
-2 -1 -11 -3 -21 -6z"/>
<path d="M4155 4089 c-10 -15 3 -25 16 -12 7 7 7 13 1 17 -6 3 -14 1 -17 -5z"/>
<path d="M4080 4069 c0 -5 5 -7 10 -4 6 3 10 8 10 11 0 2 -4 4 -10 4 -5 0 -10
-5 -10 -11z"/>
<path d="M3356 2813 c-3 -3 -1 -12 4 -18 8 -10 3 -12 -20 -11 -22 0 -29 5 -25
16 3 8 -2 6 -10 -5 -8 -11 -19 -25 -25 -32 -14 -16 -13 -30 3 -36 9 -4 8 -6
-2 -6 -11 -1 -11 -4 0 -18 11 -13 11 -17 2 -20 -20 -7 -15 -37 7 -51 22 -13
28 -37 8 -29 -9 3 -14 -7 -15 -29 -1 -26 2 -34 16 -34 18 0 41 -18 41 -32 0
-4 -6 -8 -14 -8 -8 0 -17 -4 -20 -8 -7 -11 43 -68 56 -64 6 1 21 -4 34 -13 13
-8 24 -11 24 -6 0 17 -27 61 -33 54 -4 -3 -7 1 -7 10 0 10 -4 17 -9 17 -5 0
-7 10 -3 22 3 14 2 19 -6 14 -7 -4 -12 -2 -12 3 0 6 -6 11 -13 11 -7 0 -18 9
-24 19 -10 15 -9 20 2 25 8 3 18 -2 23 -11 6 -11 11 -12 16 -4 4 6 0 14 -9 17
-11 4 -14 13 -9 28 11 35 10 60 -3 74 -15 15 -17 52 -4 52 5 0 12 -6 14 -12 3
-7 6 -3 6 8 1 12 8 27 16 34 8 7 15 18 15 26 0 15 -15 26 -24 17z"/>
<path d="M5135 490 c3 -5 8 -10 11 -10 2 0 4 5 4 10 0 6 -5 10 -11 10 -5 0 -7
-4 -4 -10z"/>
<path d="M5865 330 c3 -5 8 -10 11 -10 2 0 4 5 4 10 0 6 -5 10 -11 10 -5 0 -7
-4 -4 -10z"/>
<path d="M5775 99 c-10 -15 3 -25 16 -12 7 7 7 13 1 17 -6 3 -14 1 -17 -5z"/>
</g>
</svg>
